<?xml version="1.0" encoding="UTF-8"?>
<svg version="1.1" xmlns="http://www.w3.org/2000/svg" width="1024" height="1024">
<path d="M0 0 C2.5899308 1.37257066 5.19845878 2.70629833 7.80859375 4.04003906 C18.20624801 9.37169372 28.35630966 14.82798765 38.18359375 21.15722656 C39.65131393 22.08204004 41.12015168 23.00508123 42.58984375 23.92675781 C49.69622419 28.38784038 56.77943876 32.88113492 63.80981445 37.46118164 C71.54500108 42.50030138 79.3412166 47.39965221 87.31103516 52.06005859 C88.57131318 52.79847964 89.82876523 53.54174279 91.08349609 54.28955078 C107.81305158 64.24408202 125.35354409 71.24763654 144.18359375 76.15722656 C144.85922363 76.33656738 145.53485352 76.5159082 146.23095703 76.70068359 C170.57953287 82.91904927 196.56710874 79.61296298 219.18359375 69.15722656 C219.78397461 68.88507324 220.38435547 68.61291992 221.00292969 68.33251953 C233.00235154 62.85173715 242.84041996 55.7575949 252.30126953 46.66210938 C255.98102442 43.15722656 255.98102442 43.15722656 258.18359375 43.15722656 C258.18359375 42.49722656 258.18359375 41.83722656 258.18359375 41.15722656 C259.81536768 39.45638283 261.48864474 37.79512259 263.18359375 36.15722656 C275.52876231 22.95624042 284.81357492 7.03218872 291.18359375 -9.84277344 C291.84359375 -9.84277344 292.50359375 -9.84277344 293.18359375 -9.84277344 C300.14182769 31.4337405 293.29883452 73.26167381 269.3984375 108.12597656 C250.06059346 134.59187952 223.86991117 152.65140732 192.18359375 161.15722656 C191.28697021 161.40601563 190.39034668 161.65480469 189.46655273 161.91113281 C141.39321391 174.70664597 87.81044551 158.40623308 44.15942383 137.91650391 C42.06965179 136.97787229 42.06965179 136.97787229 39.18359375 137.15722656 C38.8369165 137.7754126 38.49023926 138.39359863 38.13305664 139.03051758 C26.04880805 160.55602238 14.13340911 181.77587093 -1.8046875 200.74707031 C-3.70815216 203.02753186 -5.51928095 205.355088 -7.31640625 207.71972656 C-10.5797914 211.96670209 -14.14501939 215.88644202 -17.80078125 219.79785156 C-19.79748231 222.13507528 -21.26977467 224.50915586 -22.81640625 227.15722656 C-22.1200708 227.21668457 -21.42373535 227.27614258 -20.70629883 227.33740234 C3.69268022 229.4970968 27.90371879 233.308721 51.18359375 241.15722656 C51.84037109 241.37846191 52.49714844 241.59969727 53.17382812 241.82763672 C63.62277216 245.40214289 73.47390514 249.90893279 83.18359375 255.15722656 C83.89193359 255.5389502 84.60027344 255.92067383 85.33007812 256.31396484 C95.63720331 261.94043716 104.49592877 268.28041032 113.18359375 276.15722656 C114.08851563 276.93066406 114.9934375 277.70410156 115.92578125 278.50097656 C133.12952539 293.351625 145.57568448 314.41437819 148.18359375 337.15722656 C150.11457604 364.78931117 138.82560392 387.64247528 121.18359375 408.15722656 C118.89799269 410.74315404 116.5927227 413.30746332 114.26171875 415.85253906 C112.53748121 417.76475739 110.91811169 419.71245419 109.30859375 421.71972656 C106.03484652 425.56750071 102.15286504 428.58596431 98.2109375 431.72363281 C95.67180482 433.76476786 93.19835547 435.85984003 90.74047852 437.99731445 C65.02889975 460.2495025 35.35338042 478.70892626 5.52197266 494.8828125 C3.08200964 496.2125898 0.65373329 497.56206646 -1.7734375 498.91503906 C-126.49118012 568.15722656 -126.49118012 568.15722656 -166.81640625 568.15722656 C-165.48777183 564.1713233 -164.05621346 563.93665833 -160.37890625 561.96972656 C-134.96003958 547.97422973 -110.5808466 531.77863258 -86.81640625 515.15722656 C-86.11821777 514.67157227 -85.4200293 514.18591797 -84.70068359 513.68554688 C-76.29907587 507.83915437 -68.04464945 501.86979561 -59.9765625 495.57128906 C-57.28763223 493.51719894 -54.56822569 491.55178474 -51.7956543 489.61523438 C-42.72862796 483.28124506 -34.26876942 476.28245947 -25.81640625 469.15722656 C-25.19733398 468.63870117 -24.57826172 468.12017578 -23.94042969 467.5859375 C-10.72587022 456.50764761 1.72949766 444.6980705 13.96392822 432.55212402 C15.00939965 431.51469561 16.05634674 430.47875174 17.10491943 429.44445801 C23.93425024 422.69845532 30.20659532 415.68013142 36.18359375 408.15722656 C37.12951819 407.02466973 38.08029291 405.89611763 39.0390625 404.77441406 C51.89800962 389.71447049 51.89800962 389.71447049 55.52734375 370.76269531 C54.20925113 360.77215237 49.24639742 352.68710353 41.80859375 346.03222656 C40.94234375 345.41347656 40.07609375 344.79472656 39.18359375 344.15722656 C38.61898438 343.67125 38.054375 343.18527344 37.47265625 342.68457031 C32.525265 338.52383323 27.24083208 335.37513116 21.55859375 332.34472656 C20.84219727 331.95969971 20.12580078 331.57467285 19.38769531 331.17797852 C16.04248537 329.43635642 12.87758102 327.97943631 9.22265625 327.02050781 C8.21976563 326.735625 7.216875 326.45074219 6.18359375 326.15722656 C5.85359375 325.49722656 5.52359375 324.83722656 5.18359375 324.15722656 C3.07286657 323.49905822 3.07286657 323.49905822 0.55859375 323.09472656 C-0.34503906 322.9284375 -1.24867188 322.76214844 -2.1796875 322.59082031 C-4.32304789 322.2383566 -6.47520138 321.93967966 -8.62890625 321.65722656 C-11.81640625 321.15722656 -11.81640625 321.15722656 -14.16137695 320.19287109 C-16.95578808 319.10285804 -19.5265975 318.5676731 -22.484375 318.08691406 C-24.07088867 317.82587891 -24.07088867 317.82587891 -25.68945312 317.55957031 C-27.33010742 317.29853516 -27.33010742 317.29853516 -29.00390625 317.03222656 C-30.10927734 316.85046875 -31.21464844 316.66871094 -32.35351562 316.48144531 C-37.55883621 315.53663045 -37.55883621 315.53663045 -42.81640625 315.15722656 C-44.70458292 317.5182051 -46.48933089 319.89366571 -48.25390625 322.34472656 C-56.24859491 333.21972155 -64.92522795 343.32944131 -74.11328125 353.20800781 C-76.10760361 355.35770309 -78.02297257 357.56244562 -79.9296875 359.79003906 C-84.30817203 364.81227852 -89.01310914 369.5040722 -93.73168945 374.20288086 C-95.25132293 375.71715236 -96.76553142 377.23670086 -98.27929688 378.75683594 C-103.61855525 384.10023923 -109.04292299 389.28036798 -114.81640625 394.15722656 C-115.99243307 395.16605494 -117.16821958 396.17516354 -118.34375 397.18457031 C-119.48026071 398.15486613 -120.61698163 399.12491577 -121.75390625 400.09472656 C-125.70725012 403.47227443 -129.63735716 406.86761407 -133.50390625 410.34472656 C-138.47238409 414.78444896 -143.63036675 418.97536286 -148.81640625 423.15722656 C-149.37602051 423.6111377 -149.93563477 424.06504883 -150.51220703 424.53271484 C-164.89480337 436.19609539 -179.69103217 447.21086783 -194.87792969 457.80371094 C-196.6134989 459.01554919 -198.34418893 460.2343683 -200.07421875 461.45410156 C-224.73731625 478.73719291 -250.53219375 494.47724242 -276.81640625 509.15722656 C-277.6048291 509.59760254 -278.39325195 510.03797852 -279.20556641 510.49169922 C-282.9817457 512.59760008 -286.76240135 514.69517948 -290.546875 516.78613281 C-293.35178073 518.3383375 -296.14545911 519.90808139 -298.9296875 521.49707031 C-299.60539795 521.88161377 -300.2811084 522.26615723 -300.97729492 522.66235352 C-302.78218234 523.69144221 -304.58457372 524.7249054 -306.38671875 525.75878906 C-345.09420497 547.17943678 -386.81348305 564.44510722 -428.81640625 578.15722656 C-430.35845244 578.67693517 -431.90017488 579.19760652 -433.44140625 579.71972656 C-447.65831801 584.45869715 -447.65831801 584.45869715 -454.81640625 586.15722656 C-454.81640625 585.16722656 -454.81640625 584.17722656 -454.81640625 583.15722656 C-453.33862305 581.93383789 -453.33862305 581.93383789 -451.265625 580.73925781 C-450.13253906 580.07144287 -450.13253906 580.07144287 -448.9765625 579.39013672 C-448.16058594 578.92140137 -447.34460938 578.45266602 -446.50390625 577.96972656 C-440.37671547 574.33884274 -434.45817474 570.64215037 -428.7578125 566.36035156 C-426.45028366 564.63200327 -424.12798753 562.94044526 -421.78125 561.26660156 C-411.61938692 554.01450341 -401.69277975 546.51006401 -391.88574219 538.78564453 C-389.97331798 537.28070477 -388.05621217 535.78203917 -386.13671875 534.28613281 C-378.51171719 528.3355115 -370.99058998 522.2633452 -363.49609375 516.14941406 C-360.58054083 513.77284604 -357.64275398 511.4267751 -354.69140625 509.09472656 C-350.01981736 505.37475763 -345.50761399 501.48014486 -340.98779297 497.57885742 C-337.64767076 494.70312024 -334.27653808 491.88890959 -330.81640625 489.15722656 C-322.30072285 482.42618309 -314.15382586 475.22978519 -306.00390625 468.06347656 C-302.95773154 465.40895288 -299.88635116 462.78419015 -296.81640625 460.15722656 C-287.94666078 452.58198371 -287.94666078 452.58198371 -279.25390625 444.80566406 C-278.36703125 443.99355469 -277.48015625 443.18144531 -276.56640625 442.34472656 C-275.756875 441.59578125 -274.94734375 440.84683594 -274.11328125 440.07519531 C-272.0602156 438.36081566 -270.2565115 437.21497861 -267.81640625 436.15722656 C-267.81640625 435.49722656 -267.81640625 434.83722656 -267.81640625 434.15722656 C-266.48828125 432.81738281 -266.48828125 432.81738281 -264.56640625 431.21972656 C-260.50916937 427.76857955 -256.56294753 424.21592984 -252.64852905 420.60359192 C-250.18798039 418.33320765 -247.72151734 416.07199588 -245.23071289 413.8347168 C-234.21292368 403.85805544 -223.78141805 393.27437571 -213.28515625 382.75634766 C-210.48828635 379.95374625 -207.68690025 377.15570864 -204.8841877 374.35895157 C-202.6980397 372.17643792 -200.51430436 369.99152271 -198.3312645 367.80590057 C-197.2995088 366.77348537 -196.2670309 365.74179131 -195.23376846 364.71088409 C-189.54567479 359.03293249 -184.04533358 353.2631464 -178.81640625 347.15722656 C-177.58685992 345.8146319 -176.3498416 344.47873195 -175.09765625 343.15722656 C-174.47503906 342.49722656 -173.85242188 341.83722656 -173.2109375 341.15722656 C-171.94791667 339.82389323 -170.68489583 338.4905599 -169.421875 337.15722656 C-163.12065018 330.47766734 -157.09969007 323.68394912 -151.58984375 316.33300781 C-149.49223015 313.75950391 -147.16593097 311.5033313 -144.81640625 309.15722656 C-142.67272906 306.795316 -140.58607767 304.3858919 -138.50390625 301.96972656 C-137.92922607 301.30408691 -137.3545459 300.63844727 -136.76245117 299.95263672 C-132.31929319 294.78489451 -127.99741314 289.54006134 -123.81640625 284.15722656 C-122.73746094 282.77277344 -122.73746094 282.77277344 -121.63671875 281.36035156 C-119.51558703 278.62026665 -117.40808473 275.87078998 -115.30908203 273.11376953 C-114.26355404 271.74333098 -113.21477349 270.37537057 -112.16357422 269.00927734 C-98.21766075 250.87067747 -85.18355747 232.02861267 -73.81640625 212.15722656 C-73.43355469 211.4969043 -73.05070312 210.83658203 -72.65625 210.15625 C-51.92808261 174.31518243 -36.17263994 135.00232832 -28.81640625 94.15722656 C-29.80640625 94.15722656 -30.79640625 94.15722656 -31.81640625 94.15722656 C-31.81640625 93.49722656 -31.81640625 92.83722656 -31.81640625 92.15722656 C-32.52837158 91.88716797 -33.24033691 91.61710937 -33.97387695 91.33886719 C-36.86616197 90.13654309 -39.54757655 88.7504653 -42.296875 87.25097656 C-63.12042936 76.05978779 -84.62121872 66.29870228 -107.81640625 61.15722656 C-108.50573242 60.99641602 -109.19505859 60.83560547 -109.90527344 60.66992188 C-160.61812939 49.35112982 -215.23059769 65.27601595 -258.35546875 92.32128906 C-261.21573749 94.21555675 -264.02033696 96.16970723 -266.81640625 98.15722656 C-267.84507812 98.85203125 -268.87375 99.54683594 -269.93359375 100.26269531 C-281.71546026 108.24441543 -292.71717798 116.9226202 -303.11328125 126.63769531 C-306.11475757 129.43531414 -309.18686059 132.13721776 -312.29296875 134.81738281 C-313.5081346 135.8861056 -314.67211685 137.01293716 -315.81640625 138.15722656 C-315.22368832 133.42993966 -313.86969606 129.35650272 -311.94140625 125.03222656 C-311.63388428 124.34193359 -311.3263623 123.65164063 -311.00952148 122.94042969 C-283.0541065 61.61975339 -233.36288022 7.52939605 -169.94140625 -17.09277344 C-160.48337747 -20.59760399 -150.68526048 -22.83573474 -140.81640625 -24.84277344 C-139.5946167 -25.09269043 -139.5946167 -25.09269043 -138.34814453 -25.34765625 C-91.91406738 -34.46273825 -41.17710723 -22.01773892 0 0 Z " fill="#04ABB0" transform="translate(598.81640625,285.8427734375)"/>
<path d="M0 0 C2.5899308 1.37257066 5.19845878 2.70629833 7.80859375 4.04003906 C18.20624801 9.37169372 28.35630966 14.82798765 38.18359375 21.15722656 C39.65131393 22.08204004 41.12015168 23.00508123 42.58984375 23.92675781 C49.69622419 28.38784038 56.77943876 32.88113492 63.80981445 37.46118164 C71.54500108 42.50030138 79.3412166 47.39965221 87.31103516 52.06005859 C88.57131318 52.79847964 89.82876523 53.54174279 91.08349609 54.28955078 C107.81305158 64.24408202 125.35354409 71.24763654 144.18359375 76.15722656 C144.85922363 76.33656738 145.53485352 76.5159082 146.23095703 76.70068359 C170.57953287 82.91904927 196.56710874 79.61296298 219.18359375 69.15722656 C219.78397461 68.88507324 220.38435547 68.61291992 221.00292969 68.33251953 C233.00235154 62.85173715 242.84041996 55.7575949 252.30126953 46.66210938 C255.98102442 43.15722656 255.98102442 43.15722656 258.18359375 43.15722656 C258.18359375 42.49722656 258.18359375 41.83722656 258.18359375 41.15722656 C259.81536768 39.45638283 261.48864474 37.79512259 263.18359375 36.15722656 C275.52876231 22.95624042 284.81357492 7.03218872 291.18359375 -9.84277344 C291.84359375 -9.84277344 292.50359375 -9.84277344 293.18359375 -9.84277344 C300.14182769 31.4337405 293.29883452 73.26167381 269.3984375 108.12597656 C258.75140502 122.69757657 245.11491009 138.2947334 228.13378906 145.32006836 C226.02031503 146.22731704 223.96728096 147.22250888 221.90625 148.24316406 C199.8827442 159.10749604 178.65948151 163.78095255 154.12109375 163.59472656 C153.27630463 163.59201752 152.4315155 163.58930847 151.56112671 163.58651733 C137.12776015 163.51671709 123.30442887 162.27755117 109.18359375 159.15722656 C108.35053711 158.98594238 107.51748047 158.8146582 106.65917969 158.63818359 C83.96196771 153.93332544 62.00765784 145.20528499 41.18359375 135.15722656 C40.24596191 134.7115332 39.30833008 134.26583984 38.34228516 133.80664062 C19.41333894 124.77751159 1.85983118 114.08453115 -15.51171875 102.37988281 C-18.59909137 100.30338752 -21.6954564 98.24538372 -24.81640625 96.21972656 C-25.62078125 95.69507813 -26.42515625 95.17042969 -27.25390625 94.62988281 C-29.66811466 93.24244901 -32.10544933 92.18840417 -34.67333984 91.12426758 C-37.3480432 89.91732978 -39.9080114 88.54365324 -42.4921875 87.15332031 C-63.24877393 75.9934082 -84.69491395 66.28236689 -107.81640625 61.15722656 C-108.50573242 60.99641602 -109.19505859 60.83560547 -109.90527344 60.66992188 C-160.61812939 49.35112982 -215.23059769 65.27601595 -258.35546875 92.32128906 C-261.21573749 94.21555675 -264.02033696 96.16970723 -266.81640625 98.15722656 C-267.84507812 98.85203125 -268.87375 99.54683594 -269.93359375 100.26269531 C-281.71546026 108.24441543 -292.71717798 116.9226202 -303.11328125 126.63769531 C-306.11475757 129.43531414 -309.18686059 132.13721776 -312.29296875 134.81738281 C-313.5081346 135.8861056 -314.67211685 137.01293716 -315.81640625 138.15722656 C-315.22368832 133.42993966 -313.86969606 129.35650272 -311.94140625 125.03222656 C-311.63388428 124.34193359 -311.3263623 123.65164063 -311.00952148 122.94042969 C-283.0541065 61.61975339 -233.36288022 7.52939605 -169.94140625 -17.09277344 C-160.48337747 -20.59760399 -150.68526048 -22.83573474 -140.81640625 -24.84277344 C-140.00187988 -25.00938477 -139.18735352 -25.17599609 -138.34814453 -25.34765625 C-91.91406738 -34.46273825 -41.17710723 -22.01773892 0 0 Z " fill="#15CCA4" transform="translate(598.81640625,285.8427734375)"/>
<path d="M0 0 C1.6754394 1.48815463 3.32372032 3.00769566 4.9375 4.5625 C5.65164063 5.24828125 6.36578125 5.9340625 7.1015625 6.640625 C20.90874061 21.03420835 26.53301448 38.92682984 26.20703125 58.4765625 C25.5163967 76.47388652 18.09294424 93.3510375 5.9375 106.5625 C5.18855469 107.40296875 4.43960938 108.2434375 3.66796875 109.109375 C-9.59190592 123.24752893 -26.82755455 130.46893965 -46.0625 131.5625 C-61.6477531 131.6860699 -76.43903903 129.20674779 -89.0625 119.5625 C-90.44888672 118.53962891 -90.44888672 118.53962891 -91.86328125 117.49609375 C-107.15483121 105.67316646 -117.39623828 88.88304673 -120.0625 69.5625 C-121.94520704 48.91039849 -117.96073019 29.49727996 -104.875 13 C-103.61118895 11.51482896 -102.34049271 10.03548541 -101.0625 8.5625 C-100.12470703 7.325 -100.12470703 7.325 -99.16796875 6.0625 C-88.64263579 -6.43511242 -71.38809103 -13.7407585 -55.5 -16.15234375 C-35.74491295 -17.79111802 -15.62376554 -12.39051406 0 0 Z " fill="#1AD9A9" transform="translate(749.0625,161.4375)"/>
<path d="M0 0 C3.55414924 1.31885014 6.62278624 2.89190934 9.80859375 4.94140625 C11.16573486 5.81019409 11.16573486 5.81019409 12.55029297 6.6965332 C13.50307129 7.31230225 14.45584961 7.92807129 15.4375 8.5625 C16.42379395 9.19438232 17.41008789 9.82626465 18.42626953 10.47729492 C22.62730252 13.17108444 26.81994099 15.87716899 30.99609375 18.609375 C55.47146365 34.6020198 81.62408965 46.8336153 109 57 C109.74507812 57.28456055 110.49015625 57.56912109 111.2578125 57.86230469 C119.81301138 61.12331414 128.58493301 63.16728615 137.5 65.1875 C138.6041626 65.43798096 139.7083252 65.68846191 140.84594727 65.9465332 C155.65313628 69.17355906 169.9606831 70.41286246 185.0625 70.375 C185.91928345 70.37412384 186.77606689 70.37324768 187.65881348 70.37234497 C212.42614585 70.28895619 234.82652259 65.93451762 256.45874023 53.40136719 C257.94362783 52.54855588 259.46884441 51.76664258 261 51 C261.66 51.33 262.32 51.66 263 52 C251.01974044 59.86204534 237.82014375 65.31045936 224 69 C223.13286377 69.23992676 222.26572754 69.47985352 221.37231445 69.72705078 C173.24512 82.53113758 119.68209936 66.27493967 75.97583008 45.75927734 C73.88605804 44.82064573 73.88605804 44.82064573 71 45 C70.64808594 45.62865967 70.29617188 46.25731934 69.93359375 46.9050293 C56.99074237 69.99644479 56.99074237 69.99644479 50 81 C49.67 80.34 49.34 79.68 49 79 C49.96432076 77.31243867 50.9731657 75.6502694 52 74 C52.68545368 72.36796743 53.3704714 70.73574596 54.05078125 69.1015625 C59.24699937 57.59717835 59.24699937 57.59717835 62.58203125 54.55859375 C64.6877054 52.24409241 65.00552245 49.83268629 65.6875 46.8125 C65.93886719 45.72582031 66.19023438 44.63914062 66.44921875 43.51953125 C66.63097656 42.68808594 66.81273437 41.85664063 67 41 C66.20980469 40.77699219 65.41960937 40.55398438 64.60546875 40.32421875 C59.90221269 38.59680401 55.6802868 36.2511912 51.3125 33.8125 C50.4263501 33.32217285 49.5402002 32.8318457 48.62719727 32.32666016 C42.94428104 29.1576317 37.40599862 25.86033188 31.99609375 22.2421875 C29.92425844 20.84544344 29.92425844 20.84544344 27 20 C27 19.34 27 18.68 27 18 C26.30003906 17.7525 25.60007812 17.505 24.87890625 17.25 C21.60046136 15.82652325 18.88121798 14.0245039 15.9375 12 C12.69705402 9.77704589 9.57409621 7.64562703 6 6 C4.29279421 9.64203902 3.702757 12.97548709 3.27734375 16.9609375 C2.85384663 20.07453604 1.91138279 22.99779788 1 26 C0.31003078 28.66130985 -0.34420414 31.32997398 -1 34 C-1.66 34 -2.32 34 -3 34 C-3.36738281 35.86011719 -3.36738281 35.86011719 -3.7421875 37.7578125 C-5.05379948 43.64054154 -7.05701722 49.22160999 -9.125 54.875 C-9.51953369 55.96039063 -9.91406738 57.04578125 -10.32055664 58.1640625 C-12.89207706 65.16525409 -15.57478669 72.11264071 -18.4375 79 C-18.7670166 79.80034668 -19.0965332 80.60069336 -19.43603516 81.42529297 C-21.7533199 86.87665995 -21.7533199 86.87665995 -24 88 C-23.39797898 84.48535138 -22.46974871 81.46967033 -21.03125 78.2109375 C-20.42845215 76.81983765 -20.42845215 76.81983765 -19.81347656 75.40063477 C-19.16330566 73.90294556 -19.16330566 73.90294556 -18.5 72.375 C-8.8534136 49.61149387 -1.78637768 26.25134121 3 2 C2.01 2 1.02 2 0 2 C0 1.34 0 0.68 0 0 Z " fill="#035F52" transform="translate(567,378)"/>
<path d="M0 0 C0.66 0.33 1.32 0.66 2 1 C0.51186595 4.92326251 -1.46279718 5.91692465 -5 8 C-6.77271515 9.32429164 -8.52288868 10.67925965 -10.25 12.0625 C-11.12140625 12.75472656 -11.9928125 13.44695313 -12.890625 14.16015625 C-15.07222875 15.82771542 -15.07222875 15.82771542 -16 18 C-15.01 18 -14.02 18 -13 18 C-12.67 17.34 -12.34 16.68 -12 16 C-10.7934375 16.309375 -10.7934375 16.309375 -9.5625 16.625 C-5.04221683 17.10081928 -1.34885474 16.16935872 3 15 C-0.20272207 17.7296808 -3.16086054 18.84540804 -7.1875 20 C-8.92580078 20.51046875 -8.92580078 20.51046875 -10.69921875 21.03125 C-12.33310547 21.51078125 -12.33310547 21.51078125 -14 22 C-15.50315729 22.49042652 -17.00364809 22.98918599 -18.5 23.5 C-25.58043082 25.89079482 -32.72500709 28.2737305 -40 30 C-40 29.01 -40 28.02 -40 27 C-38.5222168 25.77661133 -38.5222168 25.77661133 -36.44921875 24.58203125 C-35.69326416 24.13641846 -34.93730957 23.69080566 -34.15844727 23.23168945 C-33.34303467 22.76335693 -32.52762207 22.29502441 -31.6875 21.8125 C-24.48858432 17.55191725 -17.67645854 13.04830377 -11 8 C-8.94007689 6.49646316 -6.87760341 4.99641377 -4.8125 3.5 C-3.89082031 2.8296875 -2.96914062 2.159375 -2.01953125 1.46875 C-1.35308594 0.9840625 -0.68664062 0.499375 0 0 Z " fill="#028DAA" transform="translate(184,842)"/>
<path d="M0 0 C-17.61570297 7.23436047 -35.30479921 13.97777642 -53.4375 19.8125 C-54.25544037 20.07647583 -55.07338074 20.34045166 -55.91610718 20.61242676 C-58.23279915 21.3575645 -60.55127106 22.09670373 -62.87109375 22.83203125 C-63.9126059 23.16389183 -63.9126059 23.16389183 -64.97515869 23.50245667 C-69.76156078 25 -69.76156078 25 -72 25 C-70.62712963 20.8813889 -67.87426609 19.9515279 -64.25 18 C-63.00497971 17.31291411 -61.76018413 16.62542087 -60.515625 15.9375 C-59.91685547 15.61265625 -59.31808594 15.2878125 -58.70117188 14.953125 C-57.15791847 14.08847786 -55.66122763 13.14200223 -54.171875 12.1875 C-53.45515625 11.795625 -52.7384375 11.40375 -52 11 C-51.34 11.33 -50.68 11.66 -50 12 C-50.56589844 12.33773437 -51.13179688 12.67546875 -51.71484375 13.0234375 C-52.44832031 13.46945312 -53.18179687 13.91546875 -53.9375 14.375 C-54.66839844 14.81585937 -55.39929688 15.25671875 -56.15234375 15.7109375 C-58.13772272 16.8773984 -58.13772272 16.8773984 -59 19 C-53.97554199 17.36508289 -48.95520007 15.71801575 -43.9375 14.0625 C-43.1922406 13.81689331 -42.4469812 13.57128662 -41.67913818 13.3182373 C-30.8862951 9.75057156 -20.26076586 5.94544104 -9.76928711 1.55493164 C-8.90956299 1.20164795 -8.04983887 0.84836426 -7.1640625 0.484375 C-6.05732178 0.01596191 -6.05732178 0.01596191 -4.92822266 -0.46191406 C-3 -1 -3 -1 0 0 Z " fill="#035A5C" transform="translate(504,829)"/>
<path d="M0 0 C0 0.66 0 1.32 0 2 C-3.11895558 3.30660177 -6.24611487 4.592379 -9.375 5.875 C-10.24511719 6.23980469 -11.11523438 6.60460937 -12.01171875 6.98046875 C-17.94286431 9.39686138 -23.68343921 10.97000225 -30 12 C-31.19625 12.20625 -32.3925 12.4125 -33.625 12.625 C-34.800625 12.810625 -34.800625 12.810625 -36 13 C-36 12.01 -36 11.02 -36 10 C-32.7 9.67 -29.4 9.34 -26 9 C-26 8.34 -26 7.68 -26 7 C-21.545 6.505 -21.545 6.505 -17 6 C-17 5.34 -17 4.68 -17 4 C-11.15439723 1.36536213 -6.45512034 -0.56131481 0 0 Z " fill="#0291AE" transform="translate(211,847)"/>
<path d="M0 0 C2.97 1.32 5.94 2.64 9 4 C8.39113951 8.11557673 7.0222755 11.20826474 5.05078125 14.859375 C4.44943359 15.97570312 3.84808594 17.09203125 3.22851562 18.2421875 C2.59623047 19.39976562 1.96394531 20.55734375 1.3125 21.75 C0.69955078 22.89210938 0.08660156 24.03421875 -0.54492188 25.2109375 C-4.0626939 31.7018424 -7.75609571 37.95663316 -12 44 C-12.33 43.34 -12.66 42.68 -13 42 C-12.03567924 40.31243867 -11.0268343 38.6502694 -10 37 C-9.31454632 35.36796743 -8.6295286 33.73574596 -7.94921875 32.1015625 C-2.75300063 20.59717835 -2.75300063 20.59717835 0.58203125 17.55859375 C2.6877054 15.24409241 3.00552245 12.83268629 3.6875 9.8125 C3.93886719 8.72582031 4.19023438 7.63914062 4.44921875 6.51953125 C4.63097656 5.68808594 4.81273437 4.85664063 5 4 C3.02 3.34 1.04 2.68 -1 2 C-0.67 1.34 -0.34 0.68 0 0 Z " fill="#026A5C" transform="translate(629,415)"/>
<path d="M0 0 C0.90234375 0.07831055 1.8046875 0.15662109 2.734375 0.23730469 C3.57484375 0.32141602 4.4153125 0.40552734 5.28125 0.4921875 C6.02439453 0.56550293 6.76753906 0.63881836 7.53320312 0.71435547 C9.5 1.125 9.5 1.125 12.5 3.125 C11.18 3.125 9.86 3.125 8.5 3.125 C8.17 3.785 7.84 4.445 7.5 5.125 C7.005 4.135 7.005 4.135 6.5 3.125 C5.71753906 3.13660156 4.93507813 3.14820313 4.12890625 3.16015625 C3.11699219 3.16917969 2.10507812 3.17820312 1.0625 3.1875 C0.05316406 3.19910156 -0.95617187 3.21070313 -1.99609375 3.22265625 C-4.5 3.125 -4.5 3.125 -5.5 2.125 C-7.27869726 1.96735595 -9.06318476 1.87399323 -10.84765625 1.80859375 C-11.92724609 1.76669922 -13.00683594 1.72480469 -14.11914062 1.68164062 C-15.82360352 1.62266602 -15.82360352 1.62266602 -17.5625 1.5625 C-18.70267578 1.51931641 -19.84285156 1.47613281 -21.01757812 1.43164062 C-23.84492195 1.32517161 -26.67235738 1.22315793 -29.5 1.125 C-29.5 1.785 -29.5 2.445 -29.5 3.125 C-32.96489537 3.85445166 -35.96423522 4.125 -39.5 4.125 C-39.5 3.465 -39.5 2.805 -39.5 2.125 C-40.82 1.795 -42.14 1.465 -43.5 1.125 C-29.00327985 -1.78995989 -14.66258008 -1.31132881 0 0 Z " fill="#2FECB2" transform="translate(510.5,259.875)"/>
<path d="M0 0 C-0.598125 0.28875 -1.19625 0.5775 -1.8125 0.875 C-4.19327792 2.04742026 -4.19327792 2.04742026 -7 4 C-7.99 3.67 -8.98 3.34 -10 3 C-11.66621616 2.96125079 -13.33394172 2.9549714 -15 3 C-15 3.66 -15 4.32 -15 5 C-15.66 5 -16.32 5 -17 5 C-17.33 5.99 -17.66 6.98 -18 8 C-18.99 7.34 -19.98 6.68 -21 6 C-21.66 7.32 -22.32 8.64 -23 10 C-27.51617599 10.07654536 -31.59085217 10.10228696 -36 9 C-33.15105116 6.15105116 -29.71995263 5.5650326 -25.9375 4.5 C-25.16543213 4.27932861 -24.39336426 4.05865723 -23.59790039 3.83129883 C-15.64908086 1.58210709 -8.32603821 -0.30276503 0 0 Z " fill="#32F0B5" transform="translate(466,262)"/>
<path d="M0 0 C0 3 0 3 -1 5 C-0.2565332 5.06993164 0.48693359 5.13986328 1.25292969 5.21191406 C16.70984389 6.69330091 31.85018472 8.56162027 47 12 C47 12.33 47 12.66 47 13 C40.32185589 12.5647951 33.78051456 11.66794016 27.1875 10.5625 C16.51191145 8.78721894 5.78303419 7.85351002 -5 7 C-5 6.34 -5 5.68 -5 5 C-4.34 5 -3.68 5 -3 5 C-2.5359375 4.0409375 -2.5359375 4.0409375 -2.0625 3.0625 C-1 1 -1 1 0 0 Z " fill="#036155" transform="translate(577,508)"/>
<path d="M0 0 C0.33 0.66 0.66 1.32 1 2 C-0.1796875 4.20703125 -0.1796875 4.20703125 -1.875 6.8125 C-4.14577716 10.30315978 -5.22152624 12.93985669 -6 17 C-7.61594832 19.04119788 -9.2856382 21.04072937 -11 23 C-11.495 23.886875 -11.99 24.77375 -12.5 25.6875 C-14.28437056 28.43840461 -16.11331413 29.5176478 -19 31 C-17.43303445 26.4462769 -15.01371374 22.81003313 -12.3125 18.875 C-11.41442588 17.54881228 -10.51729807 16.22198325 -9.62109375 14.89453125 C-9.17878418 14.24049316 -8.73647461 13.58645508 -8.28076172 12.91259766 C-5.43526625 8.66333889 -2.71915785 4.33084413 0 0 Z " fill="#047A6C" transform="translate(523,502)"/>
<path d="M0 0 C0 0.99 0 1.98 0 3 C-1 4 -2 5 -3 6 C-3.11601563 6.86625 -3.11601563 6.86625 -3.234375 7.75 C-4.41940106 11.23252556 -7.1165213 13.20391651 -9.8125 15.5625 C-10.34681641 16.04396484 -10.88113281 16.52542969 -11.43164062 17.02148438 C-14.19124348 19.48917352 -16.99414811 21.83840675 -20 24 C-20.66 23.67 -21.32 23.34 -22 23 C-20.04808712 20.82722848 -18.08902463 18.66177539 -16.125 16.5 C-15.56941406 15.87996094 -15.01382813 15.25992187 -14.44140625 14.62109375 C-13.90644531 14.03457031 -13.37148438 13.44804687 -12.8203125 12.84375 C-12.08192139 12.02680664 -12.08192139 12.02680664 -11.32861328 11.19335938 C-10 10 -10 10 -8 10 C-8 9.34 -8 8.68 -8 8 C-6.3777546 6.29006566 -4.70586575 4.62652316 -3 3 C-2.401875 2.401875 -1.80375 1.80375 -1.1875 1.1875 C-0.795625 0.795625 -0.40375 0.40375 0 0 Z " fill="#08AA92" transform="translate(865,319)"/>
<path d="M0 0 C0.66 0.33 1.32 0.66 2 1 C1.54625 1.433125 1.0925 1.86625 0.625 2.3125 C-1.20024334 4.10798342 -1.20024334 4.10798342 -3 7 C-1.02 7 0.96 7 3 7 C0.16365112 9.83634888 -3.2544712 10.53830366 -7 11.6875 C-7.73734375 11.92533203 -8.4746875 12.16316406 -9.234375 12.40820312 C-14.7508788 14.1245606 -14.7508788 14.1245606 -17 13 C-11.66105169 8.08293044 -6.13532814 3.87718653 0 0 Z " fill="#03B6DC" transform="translate(166,855)"/>
<path d="M0 0 C0 3.34703696 -0.67826791 4.71824246 -2.25 7.625 C-2.87648438 8.81996094 -2.87648438 8.81996094 -3.515625 10.0390625 C-5 12 -5 12 -7.171875 12.7734375 C-8.07679688 12.88558594 -8.07679688 12.88558594 -9 13 C-9.0825 13.598125 -9.165 14.19625 -9.25 14.8125 C-10.24004142 17.70012081 -11.45095729 18.34656689 -14 20 C-15.0725 20.721875 -16.145 21.44375 -17.25 22.1875 C-18.61125 23.0846875 -18.61125 23.0846875 -20 24 C-18.4186938 20.26077871 -16.06769602 17.70350263 -13.3125 14.75 C-9.5705954 10.70440459 -5.88799104 6.62380144 -2.27734375 2.4609375 C-1.54167701 1.61953273 -0.79030613 0.79030613 0 0 Z " fill="#058E83" transform="translate(456,593)"/>
<path d="M0 0 C0.66 0.33 1.32 0.66 2 1 C1.113125 1.70125 0.22625 2.4025 -0.6875 3.125 C-3.35303472 5.33074552 -5.41084493 7.73932671 -7.58203125 10.4375 C-10.28159613 13.41222715 -13.4153628 16.16848557 -17 18 C-19.24609375 17.66015625 -19.24609375 17.66015625 -21 17 C-14.10035518 11.19776061 -7.17026999 5.4682362 0 0 Z " fill="#03889E" transform="translate(219,815)"/>
<path d="M0 0 C-2.66639311 3.06351549 -5.84522159 4.79529434 -9.375 6.75 C-10.49648438 7.38421875 -11.61796875 8.0184375 -12.7734375 8.671875 C-16.18967378 10.07807395 -17.56154677 10.15902918 -21 9 C-19.59719304 6.19438607 -17.9490995 5.99319493 -15.0625 4.875 C-14.16660156 4.52179687 -13.27070313 4.16859375 -12.34765625 3.8046875 C-10 3 -10 3 -8 3 C-7.67 2.01 -7.34 1.02 -7 0 C-4.3333581 -1.33332095 -2.83319697 -0.67102033 0 0 Z " fill="#028FAC" transform="translate(320,795)"/>
<path d="M0 0 C0.66 0.33 1.32 0.66 2 1 C1.13375 1.48919922 1.13375 1.48919922 0.25 1.98828125 C-0.86375 2.64376953 -0.86375 2.64376953 -2 3.3125 C-2.7425 3.74175781 -3.485 4.17101562 -4.25 4.61328125 C-5.11625 5.29970703 -5.11625 5.29970703 -6 6 C-6 6.99 -6 7.98 -6 9 C-6.99 9 -7.98 9 -9 9 C-9 9.66 -9 10.32 -9 11 C-14.445 12.485 -14.445 12.485 -20 14 C-18.62712963 9.8813889 -15.87426609 8.9515279 -12.25 7 C-11.00497971 6.31291411 -9.76018413 5.62542087 -8.515625 4.9375 C-7.91685547 4.61265625 -7.31808594 4.2878125 -6.70117188 3.953125 C-5.15791847 3.08847786 -3.66122763 2.14200223 -2.171875 1.1875 C-1.45515625 0.795625 -0.7384375 0.40375 0 0 Z " fill="#04777C" transform="translate(452,840)"/>
<path d="M0 0 C1.18335938 -0.01836914 1.18335938 -0.01836914 2.390625 -0.03710938 C9.45272256 -0.0550032 9.45272256 -0.0550032 12.75 2.1875 C6.8353971 3.78604133 1.59715547 2.44640714 -4.25 1.1875 C-4.91 2.5075 -5.57 3.8275 -6.25 5.1875 C-6.58 4.1975 -6.91 3.2075 -7.25 2.1875 C-8.57 2.1875 -9.89 2.1875 -11.25 2.1875 C-11.25 2.8475 -11.25 3.5075 -11.25 4.1875 C-12.24 4.5175 -13.23 4.8475 -14.25 5.1875 C-14.25 4.5275 -14.25 3.8675 -14.25 3.1875 C-15.9 3.1875 -17.55 3.1875 -19.25 3.1875 C-14.90744504 -1.15505496 -5.89493703 0.00491245 0 0 Z " fill="#31F0B1" transform="translate(703.25,146.8125)"/>
<path d="M0 0 C0.66 0.33 1.32 0.66 2 1 C1.29875 1.680625 0.5975 2.36125 -0.125 3.0625 C-1.67905083 4.58607925 -3.06625787 6.08697511 -4.38671875 7.8203125 C-8.1568217 12.757598 -10.85325518 14.04619477 -17 15 C-13.89343328 10.73231553 -10.44094906 7.79617101 -6.25 4.6875 C-5.64800781 4.23310547 -5.04601562 3.77871094 -4.42578125 3.31054688 C-2.95473262 2.20142291 -1.47794588 1.09991637 0 0 Z " fill="#1DB389" transform="translate(377,297)"/>
<path d="M0 0 C-0.886875 0.37125 -1.77375 0.7425 -2.6875 1.125 C-5.66014381 2.80762857 -6.6735779 3.61599985 -8.625 6.1875 C-9.40875 7.115625 -10.1925 8.04375 -11 9 C-12.32 9 -13.64 9 -15 9 C-15 8.34 -15 7.68 -15 7 C-15.78375 7.515625 -16.5675 8.03125 -17.375 8.5625 C-18.24125 9.036875 -19.1075 9.51125 -20 10 C-20.66 9.67 -21.32 9.34 -22 9 C-16.375 5 -16.375 5 -13 5 C-13 4.34 -13 3.68 -13 3 C-11.40084119 2.30093058 -9.79544955 1.61610532 -8.1875 0.9375 C-7.29417969 0.55464844 -6.40085937 0.17179688 -5.48046875 -0.22265625 C-3 -1 -3 -1 0 0 Z " fill="#33F2B5" transform="translate(683,151)"/>
<path d="M0 0 C0 0.33 0 0.66 0 1 C-1.82724609 1.39832031 -1.82724609 1.39832031 -3.69140625 1.8046875 C-5.3151294 2.16134345 -6.93882591 2.51812074 -8.5625 2.875 C-9.36236328 3.04902344 -10.16222656 3.22304688 -10.98632812 3.40234375 C-18.38441883 5.03294333 -25.56893854 7.15379819 -32.765625 9.51171875 C-35 10 -35 10 -38 9 C-11.43144029 -0.30803282 -11.43144029 -0.30803282 0 0 Z " fill="#066251" transform="translate(426,344)"/>
<path d="M0 0 C-18 6.10169492 -18 6.10169492 -26 8 C-26 7.01 -26 6.02 -26 5 C-24.3203125 3.578125 -24.3203125 3.578125 -22.125 2.25 C-21.04605469 1.57710937 -21.04605469 1.57710937 -19.9453125 0.890625 C-19.30335938 0.59671875 -18.66140625 0.3028125 -18 0 C-17.34 0.33 -16.68 0.66 -16 1 C-16.99 1.99 -17.98 2.98 -19 4 C-17.31970703 3.44119141 -17.31970703 3.44119141 -15.60546875 2.87109375 C-14.13296352 2.39276402 -12.66029885 1.91492491 -11.1875 1.4375 C-10.44951172 1.19064453 -9.71152344 0.94378906 -8.95117188 0.68945312 C-3.33984375 -1.11328125 -3.33984375 -1.11328125 0 0 Z " fill="#035A5C" transform="translate(170,864)"/>
<path d="M0 0 C0.66 0.33 1.32 0.66 2 1 C1.01 2.485 1.01 2.485 0 4 C0.61488281 3.77183594 1.22976563 3.54367187 1.86328125 3.30859375 C2.67152344 3.02113281 3.47976563 2.73367188 4.3125 2.4375 C5.51326172 2.00244141 5.51326172 2.00244141 6.73828125 1.55859375 C9 1 9 1 12 2 C9.25262623 3.00777029 6.50250048 4.00641446 3.75 5 C2.97269531 5.28617188 2.19539063 5.57234375 1.39453125 5.8671875 C0.26337891 6.27324219 0.26337891 6.27324219 -0.890625 6.6875 C-1.58188477 6.93886719 -2.27314453 7.19023438 -2.98535156 7.44921875 C-5 8 -5 8 -9 8 C-7.83917375 4.51752126 -7.09067524 4.11180756 -4.0625 2.25 C-3.35222656 1.80140625 -2.64195312 1.3528125 -1.91015625 0.890625 C-1.27980469 0.59671875 -0.64945312 0.3028125 0 0 Z " fill="#05C5E9" transform="translate(454,840)"/>
<path d="M0 0 C5.50168274 4.8659841 7.27955932 11.38197525 8.390625 18.50390625 C8.67115516 24.26479351 6.87270016 28.0625466 4 33 C3 30 3 30 3.9375 27.4375 C6.69162552 18.52709389 4.46847818 11.37170837 1 3 C0.67 2.01 0.34 1.02 0 0 Z " fill="#04675D" transform="translate(649,640)"/>
<path d="M0 0 C4.25380243 0.50481425 6.21899035 1.69536338 9.1875 4.75 C9.86167969 5.42546875 10.53585937 6.1009375 11.23046875 6.796875 C13.87201287 10.0856849 15 12.78010234 15 17 C13.06015834 14.91880554 11.12307706 12.83515453 9.1875 10.75 C8.64029297 10.16347656 8.09308594 9.57695313 7.52929688 8.97265625 C4.85219687 6.08463321 2.27491168 3.22478709 0 0 Z " fill="#07AA9B" transform="translate(711,564)"/>
<path d="M0 0 C-1 3 -1 3 -3.51171875 4.60546875 C-4.55972656 5.12753906 -5.60773437 5.64960937 -6.6875 6.1875 C-7.72261719 6.71730469 -8.75773438 7.24710938 -9.82421875 7.79296875 C-13.13389137 9.0508886 -15.49411603 9.2365289 -19 9 C-15.59780735 6.25207517 -11.51535412 3 -7 3 C-7 2.34 -7 1.68 -7 1 C-4.53721199 -0.231394 -2.7204945 -0.07159196 0 0 Z " fill="#0392A9" transform="translate(563,800)"/>
<path d="M0 0 C0.66 0.33 1.32 0.66 2 1 C0.52247791 4.89528552 -1.40457329 6.03885816 -5 8 C-5.99 8.70125 -6.98 9.4025 -8 10.125 C-10.83301344 11.8956334 -12.72417353 12.61460865 -16 13 C-11.3126338 7.82773385 -5.68271819 4.01074507 0 0 Z " fill="#028BA3" transform="translate(184,842)"/>
<path d="M0 0 C0.33 0.66 0.66 1.32 1 2 C0.10375977 4.33837891 0.10375977 4.33837891 -1.30859375 7.2265625 C-1.80810547 8.2578125 -2.30761719 9.2890625 -2.82226562 10.3515625 C-3.35529297 11.43179687 -3.88832031 12.51203125 -4.4375 13.625 C-4.96666016 14.71296875 -5.49582031 15.8009375 -6.04101562 16.921875 C-7.35365595 19.61810918 -8.67357633 22.31052681 -10 25 C-9.34 25.33 -8.68 25.66 -8 26 C-9.65 27.65 -11.3 29.3 -13 31 C-12.39946865 25.91918874 -10.83193972 21.79817588 -8.75 17.1875 C-8.43861084 16.48625 -8.12722168 15.785 -7.80639648 15.0625 C-5.4759865 9.88354522 -2.93373948 4.86703323 0 0 Z " fill="#076B5A" transform="translate(296,393)"/>
<path d="M0 0 C2.1484375 0.37890625 2.1484375 0.37890625 4 1 C2.25904321 2.82200133 0.50822868 4.63229575 -1.25 6.4375 C-1.98669922 7.2119043 -1.98669922 7.2119043 -2.73828125 8.00195312 C-7.30164195 12.65658104 -7.30164195 12.65658104 -11 13 C-3.92499603 3.20197044 -3.92499603 3.20197044 0 0 Z " fill="#039AAE" transform="translate(591,739)"/>
<path d="M0 0 C-3.2274988 1.6283281 -6.45728472 3.25206831 -9.6875 4.875 C-10.59951172 5.33519531 -11.51152344 5.79539062 -12.45117188 6.26953125 C-13.78051758 6.93662109 -13.78051758 6.93662109 -15.13671875 7.6171875 C-16.35427856 8.22989502 -16.35427856 8.22989502 -17.59643555 8.85498047 C-20.02859045 10.01362003 -22.4886037 11.02671178 -25 12 C-20.59071523 5.38607284 -14.31382517 3.32712619 -7 1 C-5.9171875 0.4121875 -5.9171875 0.4121875 -4.8125 -0.1875 C-3 -1 -3 -1 0 0 Z " fill="#0D886C" transform="translate(369,363)"/>
<path d="M0 0 C-3.11672476 2.0338251 -6.24460936 4.04978476 -9.375 6.0625 C-10.70917969 6.93358398 -10.70917969 6.93358398 -12.0703125 7.82226562 C-12.92109375 8.36689453 -13.771875 8.91152344 -14.6484375 9.47265625 C-15.43395996 9.98062744 -16.21948242 10.48859863 -17.02880859 11.01196289 C-17.67930176 11.33801514 -18.32979492 11.66406738 -19 12 C-19.66 11.67 -20.32 11.34 -21 11 C-19.92456217 10.01216806 -18.83926783 9.03506057 -17.75 8.0625 C-17.14671875 7.51722656 -16.5434375 6.97195313 -15.921875 6.41015625 C-14 5 -14 5 -11.890625 4.49609375 C-9.59945724 4.11854057 -9.59945724 4.11854057 -8 1 C-2.54545455 -1.27272727 -2.54545455 -1.27272727 0 0 Z " fill="#037177" transform="translate(644,757)"/>
<path d="M0 0 C1.31001253 3.27503132 0.72878314 5.50134318 -0.3203125 8.78515625 C-1.19775669 11.64441405 -1.90690123 14.53432927 -2.625 17.4375 C-2.88539063 18.48808594 -3.14578125 19.53867187 -3.4140625 20.62109375 C-3.60742188 21.40613281 -3.80078125 22.19117188 -4 23 C-6.16451796 15.80663957 -4.00663232 8.23622378 -0.875 1.625 C-0.441875 0.820625 -0.441875 0.820625 0 0 Z " fill="#027161" transform="translate(570,389)"/>
<path d="M0 0 C1.32 0.33 2.64 0.66 4 1 C2.94305316 4.17084052 2.26600591 4.73399409 0 7 C-0.66 8.03125 -1.32 9.0625 -2 10.125 C-4 13 -4 13 -7 14 C-5.23570801 9.02790438 -2.6060834 4.56561939 0 0 Z " fill="#09AA91" transform="translate(884,290)"/>
<path d="M0 0 C-3.1583102 1.49749022 -6.32788551 2.96950601 -9.5 4.4375 C-10.386875 4.85837891 -11.27375 5.27925781 -12.1875 5.71289062 C-17.56198528 8.18278276 -22.08783237 9.62012942 -28 10 C-27.67 9.34 -27.34 8.68 -27 8 C-25.17639827 7.58710904 -23.35250151 7.17548858 -21.52734375 6.76953125 C-17.34142439 5.49499321 -13.59012835 3.38259391 -9.734375 1.33984375 C-5.87497516 -0.55126217 -4.13361393 -1.37787131 0 0 Z " fill="#02B6E5" transform="translate(243,834)"/>
<path d="M0 0 C0.99 0.33 1.98 0.66 3 1 C1.75323147 2.27400377 0.5024352 3.54406654 -0.75 4.8125 C-1.44609375 5.52019531 -2.1421875 6.22789062 -2.859375 6.95703125 C-8.14340344 12 -8.14340344 12 -12 12 C-11.34 9.69 -10.68 7.38 -10 5 C-8.35 5.33 -6.7 5.66 -5 6 C-3.35 4.02 -1.7 2.04 0 0 Z " fill="#0EA184" transform="translate(298,406)"/>
<path d="M0 0 C6.27 0 12.54 0 19 0 C19.33 0.66 19.66 1.32 20 2 C13.14011227 2.94870788 6.85988773 2.94870788 0 2 C0 1.34 0 0.68 0 0 Z " fill="#067E6D" transform="translate(742,449)"/>
<path d="M0 0 C0 0.99 0 1.98 0 3 C-1.98 3.99 -1.98 3.99 -4 5 C-2.68 3.35 -1.36 1.7 0 0 Z M-6.625 4.5625 C-5.75875 4.706875 -4.8925 4.85125 -4 5 C-7.33333333 7.66666667 -10.66666667 10.33333333 -14 13 C-14.66 12.67 -15.32 12.34 -16 12 C-11.06345733 5.13785558 -11.06345733 5.13785558 -6.625 4.5625 Z " fill="#019EC3" transform="translate(260,785)"/>
<path d="M0 0 C2.32240046 2.85021875 3.93906527 5.46355091 5 9 C4.625 11.3125 4.625 11.3125 4 13 C3.34 12.34 2.68 11.68 2 11 C1.01 10.67 0.02 10.34 -1 10 C-1.125 3.375 -1.125 3.375 0 0 Z " fill="#06C9BE" transform="translate(737,597)"/>
<path d="M0 0 C1.32 0.33 2.64 0.66 4 1 C1.27655418 2.48988243 -1.45465614 3.96493737 -4.1875 5.4375 C-4.95642578 5.85837891 -5.72535156 6.27925781 -6.51757812 6.71289062 C-10.31498161 8.75012425 -13.64595236 10.52009495 -18 11 C-17.67 10.01 -17.34 9.02 -17 8 C-15.14453125 7.15625 -15.14453125 7.15625 -12.8125 6.5 C-8.97026867 5.34365968 -5.57729034 3.83227066 -2 2 C-1.34 2 -0.68 2 0 2 C0 1.34 0 0.68 0 0 Z " fill="#02B6E2" transform="translate(278,814)"/>
<path d="M0 0 C-1.7241302 1.29838176 -3.45453232 2.58843747 -5.1875 3.875 C-6.63189453 4.95394531 -6.63189453 4.95394531 -8.10546875 6.0546875 C-10.71128675 7.80596599 -13.04792144 8.97459794 -16 10 C-13.3000768 4.60015359 -9.60671779 2.24411531 -4.25 -0.3125 C-2 -1 -2 -1 0 0 Z " fill="#03818D" transform="translate(663,744)"/>
<path d="M0 0 C0.66 0.33 1.32 0.66 2 1 C0.73755365 2.65227538 -0.53525235 4.29663951 -1.8125 5.9375 C-2.87404297 7.31228516 -2.87404297 7.31228516 -3.95703125 8.71484375 C-6 11 -6 11 -9 12 C-9.66 11.34 -10.32 10.68 -11 10 C-5.555 5.05 -5.555 5.05 0 0 Z " fill="#02869B" transform="translate(287,759)"/>
<path d="M0 0 C0.66 0.33 1.32 0.66 2 1 C0.48538606 4.82956366 -1.77888564 6.69207274 -5 9.1875 C-5.886875 9.88230469 -6.77375 10.57710937 -7.6875 11.29296875 C-10 13 -10 13 -12 14 C-9.48489058 8.05519592 -5.09632389 3.7858406 0 0 Z " fill="#18A17D" transform="translate(657,161)"/>
<path d="M0 0 C0 0.99 0 1.98 0 3 C-2.1875 4.5 -2.1875 4.5 -5 6 C-5.928125 6.556875 -6.85625 7.11375 -7.8125 7.6875 C-8.534375 8.120625 -9.25625 8.55375 -10 9 C-10.66 8.34 -11.32 7.68 -12 7 C-10.75627811 6.01287122 -9.50472782 5.03560095 -8.25 4.0625 C-7.55390625 3.51722656 -6.8578125 2.97195313 -6.140625 2.41015625 C-4.03907872 1.02574346 -2.45678201 0.43713013 0 0 Z " fill="#0396AC" transform="translate(517,799)"/>
<path d="M0 0 C4.455 1.98 4.455 1.98 9 4 C8.64950425 7.24208567 8.43778819 8.61527704 5.9375 10.8125 C5.298125 11.204375 4.65875 11.59625 4 12 C4 9.16032769 4.40267181 6.76264289 5 4 C3.02 3.34 1.04 2.68 -1 2 C-0.67 1.34 -0.34 0.68 0 0 Z " fill="#027565" transform="translate(629,415)"/>
<path d="M0 0 C3.62276315 1.3255581 6.63505348 2.94346955 9.8125 5.125 C10.60269531 5.66382813 11.39289062 6.20265625 12.20703125 6.7578125 C12.79871094 7.16773438 13.39039063 7.57765625 14 8 C12.29296875 8.671875 12.29296875 8.671875 10 9 C7.67578125 7.890625 7.67578125 7.890625 5.3125 6.25 C4.52488281 5.71890625 3.73726562 5.1878125 2.92578125 4.640625 C1 3 1 3 0 0 Z " fill="#0FA082" transform="translate(651,317)"/>
<path d="M0 0 C0.66 0.33 1.32 0.66 2 1 C-0.97 4.3 -3.94 7.6 -7 11 C-8.32 10.67 -9.64 10.34 -11 10 C-5.555 5.05 -5.555 5.05 0 0 Z " fill="#038295" transform="translate(263,779)"/>
<path d="M0 0 C-9.22551253 6.70387244 -9.22551253 6.70387244 -15 7 C-12.86147591 4.73489661 -10.67088393 2.95220832 -8.0625 1.25 C-7.39347656 0.80140625 -6.72445312 0.3528125 -6.03515625 -0.109375 C-3.57208067 -1.18726604 -2.47819942 -0.90922753 0 0 Z " fill="#069B86" transform="translate(840,346)"/>
<path d="M0 0 C0.66 0.33 1.32 0.66 2 1 C-0.28560647 2.5306999 -2.57762667 4.04965044 -4.875 5.5625 C-5.52597656 6.00013672 -6.17695313 6.43777344 -6.84765625 6.88867188 C-8.52625497 7.98754836 -10.26023387 9.0007818 -12 10 C-12.66 9.67 -13.32 9.34 -14 9 C-12.75803878 7.84545838 -11.50607155 6.70167438 -10.25 5.5625 C-9.55390625 4.92441406 -8.8578125 4.28632812 -8.140625 3.62890625 C-5.98162486 1.98601745 -4.62442992 1.47967522 -2 1 C-1.34 0.67 -0.68 0.34 0 0 Z " fill="#03737F" transform="translate(373,762)"/>
<path d="M0 0 C0.83583327 2.37607949 1.1842383 3.54449627 0.22265625 5.921875 C-0.8515625 7.61458333 -1.92578125 9.30729167 -3 11 C-3.99 11 -4.98 11 -6 11 C-6 7.39426104 -5.18292538 6.58663434 -3 3.8125 C-2.443125 3.09707031 -1.88625 2.38164063 -1.3125 1.64453125 C-0.879375 1.10183594 -0.44625 0.55914063 0 0 Z " fill="#048C7D" transform="translate(503,533)"/>
<path d="M0 0 C-1.89187467 1.29745791 -3.78867344 2.5877376 -5.6875 3.875 C-6.74324219 4.59429687 -7.79898437 5.31359375 -8.88671875 6.0546875 C-11.56978706 7.73118438 -14.02840192 8.95249789 -17 10 C-13.65568361 5.33107202 -6.40069699 -3.20034849 0 0 Z " fill="#0C8269" transform="translate(344,376)"/>
<path d="M0 0 C1.38226016 2.76452033 1.09525387 5.0461363 1.0625 8.125 C1.05347656 9.22070312 1.04445313 10.31640625 1.03515625 11.4453125 C1.02355469 12.28835938 1.01195312 13.13140625 1 14 C0.67 12.68 0.34 11.36 0 10 C-0.66 10 -1.32 10 -2 10 C-2 9.01 -2 8.02 -2 7 C-2.99 8.32 -3.98 9.64 -5 11 C-4.46884894 6.48521602 -2.63379708 3.65333143 0 0 Z " fill="#0AAC90" transform="translate(890,279)"/>
<path d="M0 0 C-5.53163142 3.68775428 -10.4943717 4.46140768 -17 5 C-12.38677101 0.38677101 -6.26549531 -0.39159346 0 0 Z " fill="#01ACD9" transform="translate(211,847)"/>
<path d="M0 0 C-1.269553 0.64834654 -2.54069706 1.29357815 -3.8125 1.9375 C-4.52019531 2.29714844 -5.22789062 2.65679687 -5.95703125 3.02734375 C-8 4 -8 4 -11 5 C-11.66 5.66 -12.32 6.32 -13 7 C-13.99 6.34 -14.98 5.68 -16 5 C-14.02 4.34 -12.04 3.68 -10 3 C-10 2.34 -10 1.68 -10 1 C-8.71073008 0.63720544 -7.41846728 0.28503302 -6.125 -0.0625 C-5.40570313 -0.25972656 -4.68640625 -0.45695312 -3.9453125 -0.66015625 C-2 -1 -2 -1 0 0 Z " fill="#2CDAA6" transform="translate(429,272)"/>
<path d="M0 0 C-3.3 2.64 -6.6 5.28 -10 8 C-10.66 7.67 -11.32 7.34 -12 7 C-7.91352585 0.33991659 -7.91352585 0.33991659 -4.3125 -1 C-2 -1 -2 -1 0 0 Z " fill="#04868B" transform="translate(679,732)"/>
<path d="M0 0 C-0.99 0.495 -0.99 0.495 -2 1 C-2 1.66 -2 2.32 -2 3 C-7.28 3 -12.56 3 -18 3 C-18.33 2.34 -18.66 1.68 -19 1 C-12.65333314 0.41639845 -6.37625222 -0.14491482 0 0 Z " fill="#08BDA3" transform="translate(781,445)"/>
<path d="M0 0 C-1.6188996 1.03048037 -3.24532489 2.04914678 -4.875 3.0625 C-5.77992188 3.63097656 -6.68484375 4.19945312 -7.6171875 4.78515625 C-8.40351563 5.18605469 -9.18984375 5.58695313 -10 6 C-10.66 5.67 -11.32 5.34 -12 5 C-12 4.01 -12 3.02 -12 2 C-10.37787941 1.47026689 -8.75218416 0.95146893 -7.125 0.4375 C-6.22007812 0.14746094 -5.31515625 -0.14257812 -4.3828125 -0.44140625 C-2 -1 -2 -1 0 0 Z " fill="#027D91" transform="translate(334,788)"/>
<path d="M0 0 C0 3.68553144 -0.8522582 5.03759752 -3 8 C-5.6875 9.8125 -5.6875 9.8125 -8 11 C-6.60366572 6.55711819 -4.39598172 4.13475236 -1 1 C-0.67 0.67 -0.34 0.34 0 0 Z " fill="#059987" transform="translate(512,522)"/>
<path d="M0 0 C6.16456476 0.37742233 9.17375515 2.15870308 14 6 C12 7 12 7 9.8125 6.3125 C6.41196498 4.72558366 3.2345614 2.90268318 0 1 C0 0.67 0 0.34 0 0 Z " fill="#1AB58D" transform="translate(734,155)"/>
<path d="M0 0 C-3.3 2.31 -6.6 4.62 -10 7 C-10.66 6.67 -11.32 6.34 -12 6 C-10.29620573 2.1915187 -9.41878493 1.16163629 -5.4375 -0.375 C-2 -1 -2 -1 0 0 Z " fill="#037B8A" transform="translate(393,751)"/>
<path d="M0 0 C4.23322844 0.62045463 7.52290295 2.10523559 11.3125 4.0625 C12.38113281 4.61035156 13.44976563 5.15820312 14.55078125 5.72265625 C15.35902344 6.14417969 16.16726563 6.56570313 17 7 C13.78798216 8.60600892 11.29112979 7.05786315 8 6 C7.34 5.67 6.68 5.34 6 5 C6 4.34 6 3.68 6 3 C4.02 2.34 2.04 1.68 0 1 C0 0.67 0 0.34 0 0 Z " fill="#057B6E" transform="translate(663,533)"/>
<path d="M0 0 C0 4.24645065 -1.81750806 6.38524772 -4 10 C-5.32 9.67 -6.64 9.34 -8 9 C-5.36 6.03 -2.72 3.06 0 0 Z " fill="#048C92" transform="translate(632,698)"/>
<path d="M0 0 C5.28 0.33 10.56 0.66 16 1 C15.67 1.66 15.34 2.32 15 3 C12.67843403 3.40729228 10.3431213 3.74438677 8 4 C8 3.34 8 2.68 8 2 C5.36 1.67 2.72 1.34 0 1 C0 0.67 0 0.34 0 0 Z " fill="#09BDA3" transform="translate(725,445)"/>
<path d="M0 0 C0.66 0.33 1.32 0.66 2 1 C1 4 1 4 -1.8125 5.75 C-4.96403086 6.98589446 -5.96929372 7.28222189 -9 6 C-6.63672401 3.26357517 -4.36305523 2.23902035 -1 1 C-0.67 0.67 -0.34 0.34 0 0 Z " fill="#0299BB" transform="translate(235,804)"/>
<path d="M0 0 C3.89608498 1.48904175 7.59097018 3.24378713 11.3125 5.125 C12.38113281 5.66382813 13.44976563 6.20265625 14.55078125 6.7578125 C15.76314453 7.37269531 15.76314453 7.37269531 17 8 C14.46741124 8.93820902 13.34226011 9.13196296 10.78125 8.14453125 C6.72325794 5.77505301 3.08832643 3.62542668 0 0 Z " fill="#066957" transform="translate(659,279)"/>
<path d="M0 0 C3.21524305 1.40844718 5.32183868 3.10344786 7.75 5.625 C8.67039062 6.57246094 8.67039062 6.57246094 9.609375 7.5390625 C10.29773438 8.26222656 10.29773438 8.26222656 11 9 C10.67 9.66 10.34 10.32 10 11 C4.8932559 7.93595354 2.61241098 5.22482196 0 0 Z " fill="#25EEBA" transform="translate(748,164)"/>
<path d="M0 0 C0.66 0.33 1.32 0.66 2 1 C-0.31 3.64 -2.62 6.28 -5 9 C-6.32 8.67 -7.64 8.34 -9 8 C-6.03 5.36 -3.06 2.72 0 0 Z " fill="#027E92" transform="translate(274,770)"/>
<path d="M0 0 C4.10958767 1.45044271 7.43258745 3.51110752 11 6 C9.4375 6.75 9.4375 6.75 7 7 C4.49713591 5.86915563 2.32992278 4.47860484 0 3 C0 2.01 0 1.02 0 0 Z " fill="#0F9E80" transform="translate(640,310)"/>
<path d="M0 0 C-1 3 -1 3 -2.75 4.0625 C-6.14317624 5.47632343 -9.51111662 6.83703887 -13 8 C-13 7.34 -13 6.68 -13 6 C-11.21118264 4.99491199 -9.41885304 3.99607264 -7.625 3 C-6.62726563 2.443125 -5.62953125 1.88625 -4.6015625 1.3125 C-2 0 -2 0 0 0 Z " fill="#31F1B3" transform="translate(407,281)"/>
<path d="M0 0 C2.58361518 -0.05407567 5.16609255 -0.093707 7.75 -0.125 C8.84441406 -0.15013672 8.84441406 -0.15013672 9.9609375 -0.17578125 C13.8044624 -0.21072239 16.74606772 -0.17499684 20 2 C14.375 3.125 14.375 3.125 11 2 C9.10787263 1.77820215 7.21115528 1.59385985 5.3125 1.4375 C4.31863281 1.35371094 3.32476563 1.26992187 2.30078125 1.18359375 C1.16189453 1.09271484 1.16189453 1.09271484 0 1 C0 0.67 0 0.34 0 0 Z " fill="#36F8BE" transform="translate(696,147)"/>
<path d="M0 0 C0.66 0.33 1.32 0.66 2 1 C4.09821215 0.60061233 4.09821215 0.60061233 6 0 C5 3 5 3 2.125 4.75 C-1 6 -1 6 -4 5 C-3.67 4.34 -3.34 3.68 -3 3 C-2.01 3 -1.02 3 0 3 C0 2.01 0 1.02 0 0 Z " fill="#02AFD5" transform="translate(537,808)"/>
<path d="M0 0 C-1.95245185 1.19714555 -3.91214997 2.38248074 -5.875 3.5625 C-6.96554687 4.22378906 -8.05609375 4.88507812 -9.1796875 5.56640625 C-10.57574219 6.27603516 -10.57574219 6.27603516 -12 7 C-12.66 6.67 -13.32 6.34 -14 6 C-4.74576271 -2.37288136 -4.74576271 -2.37288136 0 0 Z " fill="#036F75" transform="translate(616,774)"/>
<path d="M0 0 C0 3.97378549 -1.34753657 5.12649795 -4 8 C-6.25 9.3125 -6.25 9.3125 -8 10 C-6.44303593 6.17836093 -3.96591316 3.81381505 -1 1 C-0.67 0.67 -0.34 0.34 0 0 Z " fill="#059384" transform="translate(495,546)"/>
<path d="M0 0 C-1.32 0.33 -2.64 0.66 -4 1 C-4 1.66 -4 2.32 -4 3 C-7.87493656 4.07637127 -9.52452927 3.94566951 -13 2 C-11.39935157 1.46845258 -9.79431126 0.95011647 -8.1875 0.4375 C-7.29417969 0.14746094 -6.40085938 -0.14257812 -5.48046875 -0.44140625 C-3 -1 -3 -1 0 0 Z " fill="#029CBF" transform="translate(220,844)"/>
<path d="M0 0 C0.66 0.33 1.32 0.66 2 1 C0.02 3.31 -1.96 5.62 -4 8 C-5.32 7.67 -6.64 7.34 -8 7 C-5.36 4.69 -2.72 2.38 0 0 Z " fill="#03828D" transform="translate(568,759)"/>
<path d="M0 0 C-2.64 1.65 -5.28 3.3 -8 5 C-8.66 4.34 -9.32 3.68 -10 3 C-8 0 -8 0 -5 -0.75 C-2 -1 -2 -1 0 0 Z " fill="#02ADD3" transform="translate(377,760)"/>
<path d="M0 0 C4.30764815 1.56641751 8.06171464 3.68336156 12 6 C10 7 10 7 7.87109375 6.328125 C7.06800781 5.97234375 6.26492188 5.6165625 5.4375 5.25 C4.22900391 4.73179687 4.22900391 4.73179687 2.99609375 4.203125 C1 3 1 3 0 0 Z " fill="#05897A" transform="translate(680,541)"/>
<path d="M0 0 C-1.09283577 1.03295436 -2.19970579 2.05107835 -3.3125 3.0625 C-3.92738281 3.63097656 -4.54226563 4.19945312 -5.17578125 4.78515625 C-5.77777344 5.18605469 -6.37976563 5.58695312 -7 6 C-7.99 5.67 -8.98 5.34 -10 5 C-9.375 3.125 -9.375 3.125 -8 1 C-2.66666667 -1.33333333 -2.66666667 -1.33333333 0 0 Z " fill="#0F9A7F" transform="translate(320,392)"/>
<path d="M0 0 C0.33 0.66 0.66 1.32 1 2 C-0.21484375 4.6015625 -0.21484375 4.6015625 -1.9375 7.625 C-2.78634766 9.12933594 -2.78634766 9.12933594 -3.65234375 10.6640625 C-4.09707031 11.43492187 -4.54179688 12.20578125 -5 13 C-6 11 -6 11 -5.1875 8.125 C-2.59259259 1.2962963 -2.59259259 1.2962963 0 0 Z " fill="#058673" transform="translate(879,372)"/>
<path d="M0 0 C0.99 0.33 1.98 0.66 3 1 C1.02 3.31 -0.96 5.62 -3 8 C-3.33 6.68 -3.66 5.36 -4 4 C-2.0625 1.75 -2.0625 1.75 0 0 Z " fill="#1EBF95" transform="translate(338,333)"/>
<path d="M0 0 C4.97209562 1.76429199 9.43438061 4.3939166 14 7 C12 8 12 8 9.25 7.375 C5.38202595 5.73854944 3.0679603 3.84882028 0 1 C0 0.67 0 0.34 0 0 Z " fill="#0B8369" transform="translate(611,293)"/>
<path d="M0 0 C0.66 0.33 1.32 0.66 2 1 C0.8553125 1.8971875 0.8553125 1.8971875 -0.3125 2.8125 C-2.91335259 4.84004112 -2.91335259 4.84004112 -4.6875 6.75 C-6 8 -6 8 -8 8 C-8 7.01 -8 6.02 -8 5 C-6.3203125 3.578125 -6.3203125 3.578125 -4.125 2.25 C-3.40570313 1.80140625 -2.68640625 1.3528125 -1.9453125 0.890625 C-1.30335938 0.59671875 -0.66140625 0.3028125 0 0 Z " fill="#056865" transform="translate(152,864)"/>
<path d="M0 0 C0.66 0.33 1.32 0.66 2 1 C2 1.99 2 2.98 2 4 C1.0925 4.28875 0.185 4.5775 -0.75 4.875 C-3.32202908 5.76531776 -5.61346766 6.71494413 -8 8 C-5.58443874 4.80800833 -3.31996462 2.25283313 0 0 Z " fill="#027584" transform="translate(244,795)"/>
<path d="M0 0 C4.75 0.75 4.75 0.75 7 3 C6.67 4.32 6.34 5.64 6 7 C4.02 4.69 2.04 2.38 0 0 Z " fill="#049289" transform="translate(640,630)"/>
<path d="M0 0 C2.97 0.33 5.94 0.66 9 1 C9 1.66 9 2.32 9 3 C9.66 3.33 10.32 3.66 11 4 C7.71303767 4.79953138 6.28976808 5.09658936 3 4 C3 3.34 3 2.68 3 2 C2.01 1.67 1.02 1.34 0 1 C0 0.67 0 0.34 0 0 Z " fill="#09C3A7" transform="translate(693,438)"/>
<path d="M0 0 C0.66 0.33 1.32 0.66 2 1 C2 1.66 2 2.32 2 3 C0.25 4.6875 0.25 4.6875 -2 6 C-4.25 5.6875 -4.25 5.6875 -6 5 C-4.02 3.35 -2.04 1.7 0 0 Z " fill="#038799" transform="translate(553,771)"/>
<path d="M0 0 C0.8125 1.6875 0.8125 1.6875 1 4 C-1.4375 6.75 -1.4375 6.75 -4 9 C-4 5.00095031 -2.27413033 3.19799578 0 0 Z " fill="#048A8A" transform="translate(651,673)"/>
<path d="M0 0 C0 3 0 3 -1 5 C-0.34 5 0.32 5 1 5 C1 5.66 1 6.32 1 7 C-0.98 7 -2.96 7 -5 7 C-5 6.34 -5 5.68 -5 5 C-4.34 5 -3.68 5 -3 5 C-2.5359375 4.0409375 -2.5359375 4.0409375 -2.0625 3.0625 C-1 1 -1 1 0 0 Z " fill="#057062" transform="translate(577,508)"/>
<path d="M0 0 C0.75 1.75 0.75 1.75 1 4 C-0.8125 6.25 -0.8125 6.25 -3 8 C-3.66 8 -4.32 8 -5 8 C-3.8141763 4.62496331 -2.72426311 2.35277269 0 0 Z " fill="#14A07F" transform="translate(328,345)"/>
<path d="M0 0 C-1.14018002 3.42054006 -1.92458518 4.2426201 -5 6 C-7.13671875 5.578125 -7.13671875 5.578125 -9 5 C-7.87926138 4.16094435 -6.75325453 3.32892169 -5.625 2.5 C-4.99851563 2.0359375 -4.37203125 1.571875 -3.7265625 1.09375 C-2 0 -2 0 0 0 Z " fill="#02B9E7" transform="translate(173,853)"/>
<path d="M0 0 C0.66 0.33 1.32 0.66 2 1 C0.35 2.98 -1.3 4.96 -3 7 C-3.99 6.67 -4.98 6.34 -6 6 C-4 4 -2 2 0 0 Z " fill="#02879F" transform="translate(196,833)"/>
<path d="M0 0 C-1.28650706 0.69710731 -2.57940665 1.38242876 -3.875 2.0625 C-4.95394531 2.63677734 -4.95394531 2.63677734 -6.0546875 3.22265625 C-6.69664062 3.47917969 -7.33859375 3.73570312 -8 4 C-10 3 -10 3 -11 1 C-3.375 -1.125 -3.375 -1.125 0 0 Z " fill="#027889" transform="translate(593,787)"/>
<path d="M0 0 C5.15171623 -0.09038099 9.91913204 0.15318867 15 1 C15 1.33 15 1.66 15 2 C9.20858017 3.01603857 5.5415502 2.96263236 0 1 C0 0.67 0 0.34 0 0 Z " fill="#0BD7B8" transform="translate(749,366)"/>
<path d="M0 0 C1.21236328 0.04060547 1.21236328 0.04060547 2.44921875 0.08203125 C3.06410156 0.11683594 3.67898438 0.15164063 4.3125 0.1875 C1.81744038 2.68255962 0.63921112 2.54698376 -2.8125 2.8125 C-3.72257813 2.88726562 -4.63265625 2.96203125 -5.5703125 3.0390625 C-6.61832031 3.11253906 -6.61832031 3.11253906 -7.6875 3.1875 C-5.26849268 0.20484049 -3.789448 -0.16475861 0 0 Z " fill="#0DE1BF" transform="translate(717.6875,286.8125)"/>
<path d="M0 0 C3.0916909 2.52956528 3.90931332 5.22454612 5 9 C2 8 2 8 0 5 C-0.125 2.3125 -0.125 2.3125 0 0 Z " fill="#10A988" transform="translate(764,180)"/>
<path d="M0 0 C0.763125 0.20625 1.52625 0.4125 2.3125 0.625 C0.13825883 3.12537734 -1.41795798 4.06128586 -4.6875 4.625 C-5.0175 3.635 -5.3475 2.645 -5.6875 1.625 C-2.6875 -0.375 -2.6875 -0.375 0 0 Z " fill="#027F97" transform="translate(317.6875,794.375)"/>
<path d="M0 0 C0.66 0.33 1.32 0.66 2 1 C-3.14285714 6.57142857 -3.14285714 6.57142857 -7 7 C-2.25 1.125 -2.25 1.125 0 0 Z " fill="#03828D" transform="translate(630,762)"/>
<path d="M0 0 C0 3 0 3 -1.375 4.4375 C-1.91125 4.953125 -2.4475 5.46875 -3 6 C-4.17574711 8.09989652 -4.17574711 8.09989652 -5 10 C-5.66 10 -6.32 10 -7 10 C-5.6062718 5.56541027 -3.39417765 3.12621626 0 0 Z " fill="#05C1D4" transform="translate(638,693)"/>
<path d="M0 0 C-1.1446875 0.680625 -1.1446875 0.680625 -2.3125 1.375 C-4.23632814 2.53824492 -6.12941224 3.7529415 -8 5 C-8.99 4.34 -9.98 3.68 -11 3 C-9.73581754 2.30034557 -8.46334598 1.61565237 -7.1875 0.9375 C-6.47980469 0.55464844 -5.77210938 0.17179687 -5.04296875 -0.22265625 C-3 -1 -3 -1 0 0 Z " fill="#118C6D" transform="translate(419,275)"/>
<path d="M0 0 C4.31392226 0.4793247 6.16569547 1.7457985 9 5 C2.25 3.375 2.25 3.375 0 0 Z " fill="#0FB191" transform="translate(654,275)"/>
<path d="M0 0 C0 3 0 3 -1.8125 5.125 C-4 7 -4 7 -7 8 C-5.50902342 4.2047869 -3.24299151 2.38957269 0 0 Z " fill="#25C999" transform="translate(649,171)"/>
<path d="M0 0 C0.66 0.33 1.32 0.66 2 1 C0.33333333 2.66666667 -1.33333333 4.33333333 -3 6 C-4.32 5.67 -5.64 5.34 -7 5 C-4.69 3.35 -2.38 1.7 0 0 Z " fill="#037988" transform="translate(166,855)"/>
<path d="M0 0 C0.66 0.33 1.32 0.66 2 1 C0.25 3.0625 0.25 3.0625 -2 5 C-4.25 4.75 -4.25 4.75 -6 4 C-4.02 2.68 -2.04 1.36 0 0 Z " fill="#038698" transform="translate(460,835)"/>
<path d="M0 0 C0.66 0.33 1.32 0.66 2 1 C0.1875 3.5 0.1875 3.5 -2 6 C-2.99 6 -3.98 6 -5 6 C-3.63016497 2.83884224 -3.0109362 2.0072908 0 0 Z " fill="#049BAB" transform="translate(667,737)"/>
<path d="M0 0 C0.66 0.33 1.32 0.66 2 1 C2 1.99 2 2.98 2 4 C-0.31 4.33 -2.62 4.66 -5 5 C-3.35 3.35 -1.7 1.7 0 0 Z " fill="#038193" transform="translate(526,791)"/>
<path d="M0 0 C3.37462715 0.54723683 5.08235 1.0549 8 3 C7.67 3.99 7.34 4.98 7 6 C4.5 4.625 4.5 4.625 2 3 C2 2.34 2 1.68 2 1 C1.34 0.67 0.68 0.34 0 0 Z " fill="#07C8B7" transform="translate(673,539)"/>
<path d="M0 0 C0.6875 1.8125 0.6875 1.8125 1 4 C-0.3125 5.75 -0.3125 5.75 -2 7 C-2.66 7 -3.32 7 -4 7 C-2.92598892 4.08482708 -2.22189824 2.22189824 0 0 Z " fill="#129E7E" transform="translate(319,357)"/>
<path d="M0 0 C-0.33 0.99 -0.66 1.98 -1 3 C-2.98 3 -4.96 3 -7 3 C-6.67 2.01 -6.34 1.02 -6 0 C-3 -1 -3 -1 0 0 Z " fill="#2EE9A5" transform="translate(444,269)"/>
<path d="" fill="#0A8378" transform="translate(0,0)"/>
<path d="" fill="#0A8378" transform="translate(0,0)"/>
<path d="" fill="#0A8378" transform="translate(0,0)"/>
<path d="" fill="#0A8378" transform="translate(0,0)"/>
<path d="" fill="#0A8378" transform="translate(0,0)"/>
<path d="" fill="#0A8378" transform="translate(0,0)"/>
<path d="" fill="#0A8378" transform="translate(0,0)"/>
<path d="" fill="#0A8378" transform="translate(0,0)"/>
<path d="" fill="#0A8378" transform="translate(0,0)"/>
<path d="" fill="#0A8378" transform="translate(0,0)"/>
<path d="" fill="#0A8378" transform="translate(0,0)"/>
<path d="" fill="#0A8378" transform="translate(0,0)"/>
<path d="" fill="#0A8378" transform="translate(0,0)"/>
<path d="" fill="#0A8378" transform="translate(0,0)"/>
<path d="" fill="#0A8378" transform="translate(0,0)"/>
<path d="" fill="#0A8378" transform="translate(0,0)"/>
<path d="" fill="#0A8378" transform="translate(0,0)"/>
<path d="" fill="#0A8378" transform="translate(0,0)"/>
<path d="" fill="#0A8378" transform="translate(0,0)"/>
<path d="" fill="#0A8378" transform="translate(0,0)"/>
<path d="" fill="#0A8378" transform="translate(0,0)"/>
<path d="" fill="#0A8378" transform="translate(0,0)"/>
<path d="" fill="#0A8378" transform="translate(0,0)"/>
<path d="" fill="#0A8378" transform="translate(0,0)"/>
<path d="" fill="#0A8378" transform="translate(0,0)"/>
<path d="" fill="#0A8378" transform="translate(0,0)"/>
<path d="" fill="#0A8378" transform="translate(0,0)"/>
<path d="" fill="#0A8378" transform="translate(0,0)"/>
<path d="" fill="#0A8378" transform="translate(0,0)"/>
</svg>
