<?xml version="1.0" encoding="UTF-8"?>
<svg version="1.1" xmlns="http://www.w3.org/2000/svg" width="1367" height="463">
<path d="M0 0 C58.41 0 116.82 0 177 0 C172.25996559 11.85008602 165.73398831 23.04002259 159.125 33.9375 C158.67326416 34.68797607 158.22152832 35.43845215 157.75610352 36.21166992 C152.17347851 45.27550716 152.17347851 45.27550716 147 47 C145.59117232 47.08835015 144.17851619 47.12199079 142.766922 47.12025452 C141.47337044 47.12231651 141.47337044 47.12231651 140.15368652 47.12442017 C139.21069702 47.12082489 138.26770752 47.11722961 137.29614258 47.11352539 C135.80318916 47.11374443 135.80318916 47.11374443 134.28007507 47.1139679 C130.98487175 47.11327032 127.68972471 47.10548511 124.39453125 47.09765625 C122.11195405 47.09579152 119.82937645 47.09436788 117.54679871 47.09336853 C111.53474831 47.08954767 105.52272202 47.07972104 99.51068115 47.06866455 C93.37756679 47.05844118 87.24444855 47.05386892 81.11132812 47.04882812 C69.07420815 47.03809841 57.03710608 47.02102714 45 47 C44.8956665 47.54672363 44.79133301 48.09344727 44.68383789 48.65673828 C40.20052229 72.11997704 35.58679564 95.55637783 31 119 C65.32 119 99.64 119 135 119 C132.36 123.95 129.72 128.9 127 134 C126.01773438 135.86914062 125.03546875 137.73828125 124.0234375 139.6640625 C123.14130075 141.31806891 122.25850941 142.97172641 121.375 144.625 C120.93671875 145.46933594 120.4984375 146.31367188 120.046875 147.18359375 C119.60601562 148.00214844 119.16515625 148.82070313 118.7109375 149.6640625 C118.33243652 150.38029785 117.95393555 151.0965332 117.56396484 151.83447266 C115.05313483 155.31106682 112.3279758 158.46038663 108.04677773 159.45274734 C105.76359254 159.61352994 103.52905099 159.61896378 101.24072266 159.56762695 C100.38153229 159.56835709 99.52234192 159.56908722 98.63711548 159.56983948 C95.81211043 159.56637066 92.9887776 159.52754386 90.1640625 159.48828125 C88.19966533 159.47895059 86.23525649 159.47183567 84.27084351 159.46684265 C79.11175155 159.4477928 73.95336842 159.39870909 68.79455566 159.34332275 C63.52589506 159.29208698 58.25711942 159.26931935 52.98828125 159.24414062 C42.6585435 159.19058861 32.3293308 159.10529998 22 159 C21.96162018 159.54544968 21.92324036 160.09089935 21.88369751 160.65287781 C21.21365387 168.61980322 19.66283925 176.38210725 18.0859375 184.20703125 C17.79176583 185.68545637 17.49805992 187.16397422 17.20478821 188.64257812 C16.58560326 191.76025908 15.96369717 194.87737839 15.33944702 197.99404907 C13.89003122 205.23088022 12.45325665 212.47022391 11.01630974 219.70953941 C10.70089442 221.29828105 10.38529832 222.8869868 10.06952095 224.47565651 C7.23795853 238.72265945 4.49532818 252.98480322 1.86669922 267.27075195 C1.67928413 268.28093384 1.67928413 268.28093384 1.48808289 269.31152344 C1.16738698 271.04158503 0.85046156 272.77234447 0.53393555 274.50317383 C-0 277 -0 277 -1 279 C-18.82 279 -36.64 279 -55 279 C-54.39313799 272.93137987 -53.81285182 267.44781278 -52.60473633 261.5637207 C-52.4679245 260.89029129 -52.33111267 260.21686188 -52.19015503 259.52302551 C-51.74205933 257.32297259 -51.2870348 255.12441489 -50.83203125 252.92578125 C-50.5110498 251.35533805 -50.19055987 249.78479432 -49.87052917 248.2141571 C-49.02717976 244.08078932 -48.17817619 239.94860492 -47.32763672 235.81671143 C-45.82257877 228.50023956 -44.32758009 221.18170158 -42.83203125 213.86328125 C-42.66688522 213.05593473 -42.5017392 212.24858822 -42.33158875 211.41677666 C-39.94902763 199.76315812 -37.64448558 188.09696152 -35.40293884 176.4152832 C-33.14307231 164.66833964 -30.80754362 152.93692817 -28.4609375 141.20703125 C-28.25817955 140.19348635 -28.0554216 139.17994144 -27.84651947 138.13568306 C-26.57609304 131.78694198 -25.30415109 125.43850515 -24.03180313 119.09014893 C-22.92119193 113.54785863 -21.81158301 108.00536768 -20.7019043 102.46289062 C-19.37411505 95.83126517 -18.04624684 89.19965559 -16.71788025 82.56814575 C-14.31000902 70.54700935 -11.90499195 58.5253109 -9.50576019 46.50244713 C-9.06792574 44.30848087 -8.62996471 42.11453991 -8.19195557 39.92060852 C-7.91589301 38.53781139 -7.63983098 37.15501415 -7.36376953 35.7722168 C-7.23213409 35.11285913 -7.10049866 34.45350145 -6.96487427 33.77416325 C-6.32993036 30.59340226 -5.69542299 27.41255504 -5.0614624 24.2315979 C-4.38166073 20.82089656 -3.70072944 17.41042265 -3.01953125 14 C-2.72881996 12.53870918 -2.72881996 12.53870918 -2.43223572 11.04789734 C-2.25584061 10.16584122 -2.0794455 9.2837851 -1.89770508 8.375 C-1.74707108 7.61960937 -1.59643707 6.86421875 -1.4412384 6.0859375 C-1.00979707 4.04631529 -0.50562718 2.02250872 0 0 Z " fill="#0066F7" transform="translate(55,112)"/>
<path d="M0 0 C57.09 0 114.18 0 173 0 C171.85486633 11.45133675 169.34719754 22.73345181 167 34 C128.72 34 90.44 34 51 34 C50.34 38.62 49.68 43.24 49 48 C48.2107725 52.3026529 47.39820877 56.59070499 46.5390625 60.87890625 C46.3072226 62.05227036 46.07538269 63.22563446 45.83651733 64.43455505 C45.10280185 68.14456507 44.36411991 71.85356329 43.625 75.5625 C42.89634354 79.23513229 42.16874817 82.90797301 41.44158936 86.5809021 C40.96811408 88.97169965 40.49388135 91.36234732 40.01885986 93.75283813 C38.36476454 102.0932481 36.75959404 110.44201702 35.2237854 118.80506897 C34.10821205 124.78357591 34.10821205 124.78357591 33 127 C67.98 127 102.96 127 139 127 C130.19275701 140.83995327 130.19275701 140.83995327 126.375 146.5 C125.92382812 147.18835938 125.47265625 147.87671875 125.0078125 148.5859375 C124.55921875 149.24851562 124.110625 149.91109375 123.6484375 150.59375 C123.25833496 151.17833984 122.86823242 151.76292969 122.46630859 152.36523438 C119.34806602 155.84171661 116.68599313 156.93781965 112.01994324 157.36076355 C110.43412188 157.36941729 108.84815702 157.36158124 107.26245117 157.34057617 C106.39365326 157.34101425 105.52485535 157.34145233 104.62973022 157.34190369 C101.76724525 157.33981902 98.90535101 157.31650313 96.04296875 157.29296875 C94.05471619 157.28737165 92.06645948 157.28310209 90.07820129 157.28010559 C84.85190352 157.26866581 79.62585692 157.23920595 74.3996582 157.20599365 C69.0639994 157.17527418 63.72829992 157.16159623 58.39257812 157.14648438 C47.92827523 157.11433553 37.46415852 157.06314953 27 157 C26.89138138 157.75118103 26.78276276 158.50236206 26.67085266 159.27630615 C25.33133858 168.2812805 23.66943194 177.20888956 21.91796875 186.140625 C21.61871621 187.67637188 21.31967418 189.21215979 21.02082825 190.74798584 C20.3962056 193.95534062 19.76995511 197.16237126 19.14233398 200.36914062 C18.35361658 204.39902033 17.56758284 208.42941678 16.78262138 212.4600296 C13.75860824 227.98661086 10.72545484 243.51111235 7.58769226 259.01519775 C6.45672918 264.62334229 5.41457578 270.23808666 4.45866394 275.87896729 C4 278 4 278 3 279 C-0.10251201 279.08874135 -3.1826812 279.11518455 -6.28515625 279.09765625 C-7.21597519 279.0962413 -8.14679413 279.09482635 -9.1058197 279.09336853 C-12.09141191 279.08775172 -15.07693029 279.0751964 -18.0625 279.0625 C-20.08137913 279.05748716 -22.10025943 279.05292388 -24.11914062 279.04882812 C-29.07945572 279.03777683 -34.03971532 279.02050095 -39 279 C-34.67914238 256.28020925 -30.19077549 233.59355113 -25.69972992 210.90692139 C-25.05646303 207.65699994 -24.41361236 204.40699636 -23.77081299 201.15698242 C-18.52120418 174.62126665 -13.22591611 148.09514686 -7.86328125 121.58203125 C-7.61134821 120.33611395 -7.35941517 119.09019665 -7.09984779 117.80652428 C-4.63634122 105.62484302 -2.16940883 93.4438687 0.30715275 81.2648344 C1.22312428 76.75783698 2.13678373 72.2503727 3.05001259 67.74281883 C3.47322439 65.65704688 3.89754193 63.57149891 4.32308006 61.48620033 C11.33206828 34.53009213 11.33206828 34.53009213 5.5 8.4375 C4.04500727 6.25501091 2.53211056 4.12844102 1 2 C0.505 1.01 0.505 1.01 0 0 Z " fill="#4983F7" transform="translate(441,112)"/>
<path d="M0 0 C-2.67929407 16.10093901 -5.56620634 32.12366375 -8.82519531 48.11816406 C-11.10751761 59.37504183 -13.11566429 70.67030471 -15 82 C-14.41557129 81.09834106 -14.41557129 81.09834106 -13.81933594 80.1784668 C-4.31067455 65.67966225 8.23690306 57.14724847 25.296875 53.24609375 C43.18431172 50.18640063 59.31217242 52.41957077 74.83203125 62.1484375 C83.80098674 68.82190834 88.16848102 79.3424542 90 90 C92.56269907 117.16461017 83.1594026 147.09164347 78.00508118 173.61524963 C76.37857524 182.00273607 74.78445019 190.39607544 73.20044136 198.79166412 C72.7871362 200.98169608 72.37327646 203.17162247 71.95921326 205.36151123 C71.82310796 206.08138088 71.68700266 206.80125053 71.54677296 207.54293442 C71.27257341 208.99314466 70.99836219 210.44335269 70.72413921 211.8935585 C70.04430509 215.49013747 69.36585114 219.08696733 68.69015503 222.68432617 C68.17404664 225.43172968 67.65597803 228.17874768 67.13548279 230.92532349 C66.65827376 233.4435245 66.18400459 235.96228485 65.71302795 238.48165894 C65.50157639 239.59292145 65.29012482 240.70418396 65.07226562 241.84912109 C64.79654724 243.31193008 64.79654724 243.31193008 64.51525879 244.80429077 C64 247 64 247 63 248 C60.1156618 248.08865208 57.25537842 248.11521296 54.37109375 248.09765625 C53.07474754 248.09553383 53.07474754 248.09553383 51.75221252 248.09336853 C48.98060708 248.08775239 46.2090812 248.07519719 43.4375 248.0625 C41.5631522 248.05748708 39.68880315 248.05292381 37.81445312 248.04882812 C33.20960456 248.03777772 28.60481579 248.0205023 24 248 C27.23016328 229.56051001 30.67016439 211.17492872 34.3125 192.8125 C34.79253435 190.38197616 35.27226599 187.95139251 35.75170898 185.52075195 C36.71059981 180.65982989 37.67039966 175.79908886 38.63085938 170.93847656 C40.44962765 161.7281293 42.25398028 152.51498086 44.05233765 143.30062866 C44.54696095 140.76709338 45.04260576 138.23375949 45.53833008 135.70043945 C46.77455745 129.37527649 48.00619932 123.04904663 49.1953125 116.71484375 C49.34629395 115.91296631 49.49727539 115.11108887 49.65283203 114.28491211 C50.78720562 106.81894697 50.39310876 99.84050726 47 93 C41.2622972 86.02171281 34.69461361 82.84000855 25.9453125 81.7421875 C13.56804375 81.06211779 2.29795394 87.03789505 -7.02734375 94.65625 C-23.15438776 109.6187591 -26.32736863 134.41496215 -30.03610229 155.04733276 C-30.86674003 159.66280649 -31.71683664 164.2746983 -32.56640625 168.88671875 C-32.75163345 169.89342117 -32.93686066 170.9001236 -33.12770081 171.93733215 C-35.67901472 185.74964525 -38.35669651 199.53791459 -41.02877808 213.32726288 C-41.43715373 215.43571222 -41.8448938 217.54428353 -42.25244141 219.65289307 C-43.0196182 223.62175958 -43.78887218 227.59021995 -44.55859375 231.55859375 C-44.7905394 232.75772903 -45.02248505 233.95686432 -45.26145935 235.19233704 C-45.47609329 236.29603134 -45.69072723 237.39972565 -45.91186523 238.53686523 C-46.0986937 239.49970932 -46.28552216 240.46255341 -46.47801208 241.45457458 C-46.92800555 243.64892577 -47.45671634 245.82686537 -48 248 C-61.2 248 -74.4 248 -88 248 C-86.87488644 236.74886441 -86.87488644 236.74886441 -85.97192383 232.0925293 C-85.77113724 231.0457048 -85.57035065 229.99888031 -85.36347961 228.92033386 C-85.14685165 227.81611588 -84.93022369 226.71189789 -84.70703125 225.57421875 C-84.47851974 224.3919722 -84.25000824 223.20972565 -84.01457214 221.99165344 C-83.52997927 219.48922337 -83.04322759 216.98721048 -82.55444336 214.4855957 C-81.82771737 210.76539954 -81.10755852 207.04398366 -80.38867188 203.32226562 C-77.77800262 189.85155873 -75.065598 176.40523346 -72.2665863 162.97247314 C-69.78008369 151.0098064 -67.41667942 139.02379887 -65.06964207 127.03312302 C-64.1144034 122.15369275 -63.15317845 117.27546572 -62.18945312 112.39770508 C-59.72970245 99.94098682 -57.27418318 87.48394598 -54.89766884 75.01103115 C-53.8278894 69.39678502 -52.74638814 63.78488759 -51.65631676 58.17454624 C-51.01475901 54.86824007 -50.38048049 51.56088671 -49.76312256 48.24996948 C-49.07831172 44.59401967 -48.37000776 40.94336013 -47.65625 37.29296875 C-47.46084625 36.21589661 -47.2654425 35.13882446 -47.06411743 34.02911377 C-45.87545948 28.09589994 -44.85051899 24.73837148 -40 21 C-39.30261719 20.43796875 -38.60523438 19.8759375 -37.88671875 19.296875 C-10.4520202 0 -10.4520202 0 0 0 Z " fill="#4971FE" transform="translate(1089,142)"/>
<path d="M0 0 C1.12850268 0.75320917 2.25741474 1.50580531 3.38671875 2.2578125 C5.17638846 3.45059348 6.96572197 4.64386016 8.75390625 5.83886719 C14.73620819 9.83419027 20.7371877 13.80075356 26.75 17.75 C27.69609131 18.37600098 28.64218262 19.00200195 29.61694336 19.64697266 C47.53928418 31.38720566 65.68677049 39.58480443 87.4921875 35.31640625 C101.2179705 31.02041443 111.13554354 22.13106339 121 12 C121.495 11.53851563 121.99 11.07703125 122.5 10.6015625 C131.81162143 1.76414401 138.89446871 -8.77956999 145 -20 C151.05065072 -13.94934928 148.95953208 1.94254825 149 10 C147.98130384 32.75859839 134.79804048 52.92643279 118.984375 68.390625 C101.36676091 83.79450748 78.48331616 89.03496233 55.62890625 88.17919922 C29.14414251 86.37386707 5.18521551 73.69805537 -15.97021484 58.46044922 C-18.87454627 56.37075586 -21.7997356 54.31100509 -24.72412109 52.24951172 C-26.14428958 51.24727942 -27.56274162 50.24260791 -28.97900391 49.23486328 C-56.76640762 29.4960363 -83.68354956 15.28576535 -118.84375 20.6171875 C-148.17272099 26.26189723 -174.00639835 46.94765845 -196 66 C-197 64 -197 64 -196.28515625 61.26953125 C-189.59459979 42.35214319 -179.40836792 25.91115672 -165.42382812 11.47949219 C-164.01688577 10.01754592 -162.64058115 8.53105712 -161.265625 7.0390625 C-114.97909116 -42.25824081 -52.25865368 -35.20422842 0 0 Z " fill="#00B27A" transform="translate(1218,106)"/>
<path d="M0 0 C9.86425604 9.64873448 14.43448196 20.37494203 14.625 34.1875 C14.45596116 50.2799977 8.41623379 63.47434772 -2.78515625 74.8125 C-13.92358079 85.59853972 -26.33611537 92.092935 -41 96.875 C-41.69279053 97.10525879 -42.38558105 97.33551758 -43.09936523 97.57275391 C-59.15242243 102.4869183 -75.10694096 102.96765474 -91.75 102.75 C-93.78775037 102.73490435 -95.82551173 102.7212247 -97.86328125 102.70898438 C-102.78413332 102.67641507 -107.7044397 102.62491117 -112.625 102.5625 C-112.16860304 105.93460082 -111.70235058 109.30526938 -111.234375 112.67578125 C-111.10595215 113.62553833 -110.9775293 114.57529541 -110.84521484 115.55383301 C-108.90198636 129.44912366 -103.92127573 140.90122142 -92.875 150.02734375 C-82.25874432 157.27072653 -70.14041962 159.49073737 -57.54003906 157.18017578 C-39.4040899 152.81831006 -24.44165386 142.80907956 -10.625 130.5625 C-11.74268314 135.47317166 -12.88950504 140.37544241 -14.07373047 145.27050781 C-14.42021216 146.71106146 -14.76120496 148.1529577 -15.09423828 149.59667969 C-17.84619123 161.42733457 -22.36213747 169.20250627 -32.625 175.9296875 C-36.18382659 177.86665301 -39.7826653 179.42520651 -43.5625 180.875 C-44.19406006 181.11758545 -44.82562012 181.3601709 -45.47631836 181.61010742 C-65.95897205 188.95519898 -90.00529725 187.62836165 -109.88671875 179.17578125 C-127.70399323 170.1056206 -140.14898458 154.97815891 -146.57348633 136.28588867 C-157.03230025 104.0317351 -151.5129165 69.47377371 -136.41796875 39.6484375 C-123.01045842 14.45914245 -101.26327641 -3.6264631 -74.3125 -12.6875 C-49.25192078 -19.86912882 -20.36324887 -17.51116733 0 0 Z M-85.625 27.5625 C-86.37523437 28.26632813 -87.12546875 28.97015625 -87.8984375 29.6953125 C-102.70119727 44.60195129 -110.13435019 66.96965151 -111.625 87.5625 C-85.66390523 86.61218215 -54.40784371 78.13408773 -34.625 60.5625 C-33.98949219 60.01980469 -33.35398437 59.47710937 -32.69921875 58.91796875 C-25.74733759 52.5615378 -22.09402748 44.65985729 -21.375 35.3125 C-21.91459871 27.21851936 -24.60544849 21.05301729 -30.625 15.5625 C-48.89695889 1.76530655 -71.70203449 13.73023784 -85.625 27.5625 Z " fill="#498CF8" transform="translate(725.625,210.4375)"/>
<path d="M0 0 C1.38118756 2.76237511 0.71642893 4.26072053 0.10375977 7.27587891 C-0.22669594 8.92736435 -0.22669594 8.92736435 -0.56382751 10.61221313 C-0.80960037 11.80494843 -1.05537323 12.99768372 -1.30859375 14.2265625 C-1.55416519 15.44451508 -1.79973663 16.66246765 -2.05274963 17.91732788 C-2.70720278 21.15698193 -3.3674577 24.39534382 -4.03051758 27.63323975 C-4.70554426 30.93680089 -5.37303708 34.24188281 -6.04101562 37.546875 C-7.35250976 44.03295795 -8.6765787 50.51629436 -10 57 C9.8 57.495 9.8 57.495 30 58 C28.52732833 62.41801502 27.24253357 65.64158857 24.99609375 69.58203125 C24.42052734 70.59587891 23.84496094 71.60972656 23.25195312 72.65429688 C22.65318359 73.69650391 22.05441406 74.73871094 21.4375 75.8125 C20.83486328 76.87404297 20.23222656 77.93558594 19.61132812 79.02929688 C15.15715681 86.84284319 15.15715681 86.84284319 14 88 C11.70848583 88.08790975 9.41427476 88.10694038 7.12109375 88.09765625 C6.09110008 88.09553383 6.09110008 88.09553383 5.04029846 88.09336853 C2.83932199 88.08775479 0.63844591 88.07520007 -1.5625 88.0625 C-3.05143083 88.05748676 -4.54036324 88.05292355 -6.02929688 88.04882812 C-9.68623075 88.03778093 -13.34310558 88.02050713 -17 88 C-17.10086914 88.86818359 -17.20173828 89.73636719 -17.30566406 90.63085938 C-18.49208341 100.207858 -20.22945916 109.58803844 -22.22689819 119.02648926 C-23.1332161 123.31205481 -24.02048092 127.60157937 -24.91015625 131.890625 C-25.088918 132.75032898 -25.26767975 133.61003296 -25.45185852 134.49578857 C-27.85903451 146.09648728 -30.09577861 157.72840775 -32.30322266 169.36865234 C-33.0111457 173.05808728 -33.7439003 176.74196792 -34.48046875 180.42578125 C-39.35046631 199.77435217 -39.35046631 199.77435217 -36 218.6875 C-33.04945386 222.54973174 -29.76680841 224.25142178 -25 225 C-17.76602209 225.40478938 -12.17535271 222.45539584 -6 219 C-5.34 218.67 -4.68 218.34 -4 218 C-6.80736488 242.65477868 -6.80736488 242.65477868 -13.30859375 248.78125 C-21.90312001 254.97407262 -31.41519486 256.3830517 -41.8125 256.3125 C-42.68616211 256.30686035 -43.55982422 256.3012207 -44.45996094 256.29541016 C-57.21285882 256.05697204 -65.78939813 253.35175192 -74.75 244.1875 C-80.88278754 235.49938432 -82.1914805 227.3466561 -82.25 216.9375 C-82.270625 216.07833984 -82.29125 215.21917969 -82.3125 214.33398438 C-82.34784927 208.125768 -81.6867249 202.12735098 -80.75537109 196.00463867 C-80.62354242 195.13457247 -80.49171375 194.26450626 -80.35589027 193.36807442 C-78.73755604 182.96455712 -76.66787871 172.65467908 -74.5859375 162.3359375 C-74.16629829 160.23945765 -73.7470037 158.1429088 -73.32803345 156.04629517 C-72.4586775 151.70115174 -71.58609958 147.35667295 -70.7109375 143.01269531 C-69.58810924 137.43866605 -68.47225518 131.86326781 -67.35857201 126.28740501 C-66.49781754 121.98057323 -65.63415533 117.67432884 -64.76951981 113.36827469 C-64.35650994 111.31025712 -63.94425172 109.25208856 -63.53275681 107.19376755 C-62.96138891 104.33871667 -62.38627686 101.48444642 -61.81005859 98.63037109 C-61.64070297 97.78066238 -61.47134735 96.93095367 -61.29685974 96.05549622 C-60.11442406 90.22884812 -60.11442406 90.22884812 -59 88 C-69.56 88 -80.12 88 -91 88 C-89.39977232 83.9994308 -87.82295971 80.89909912 -85.55859375 77.296875 C-84.89279297 76.2346875 -84.22699219 75.1725 -83.54101562 74.078125 C-82.84685547 72.97984375 -82.15269531 71.8815625 -81.4375 70.75 C-80.73947266 69.63625 -80.04144531 68.5225 -79.32226562 67.375 C-74.1541718 59.1541718 -74.1541718 59.1541718 -73 58 C-71.5112814 57.91330568 -70.018555 57.89296506 -68.52734375 57.90234375 C-67.62822266 57.90556641 -66.72910156 57.90878906 -65.80273438 57.91210938 C-64.38444336 57.92467773 -64.38444336 57.92467773 -62.9375 57.9375 C-61.98810547 57.94201172 -61.03871094 57.94652344 -60.06054688 57.95117188 C-57.70696935 57.9629989 -55.35351523 57.97947975 -53 58 C-52.91782227 57.10752563 -52.91782227 57.10752563 -52.83398438 56.19702148 C-52.57264131 53.46274618 -52.28968878 50.73141688 -52 48 C-51.86271484 46.65832764 -51.86271484 46.65832764 -51.72265625 45.28955078 C-49.6605587 27.74581039 -49.6605587 27.74581039 -43.51953125 22.48046875 C-40.00120695 20.00401725 -36.25775628 18.04401838 -32.38769531 16.17675781 C-29.96049097 14.98052827 -27.63917768 13.67224062 -25.3046875 12.3046875 C-17.11756325 7.52721514 -8.89595496 3.3141793 0 0 Z " fill="#015CF3" transform="translate(378,139)"/>
<path d="M0 0 C-3.14138557 19.15191039 -6.82008499 38.04457148 -11 57 C2.53 57 16.06 57 30 57 C26.535 63.93 26.535 63.93 23 71 C22.484375 72.53398437 21.96875 74.06796875 21.4375 75.6484375 C18.38664514 83.5574471 18.38664514 83.5574471 14 86 C3.82860749 87.91986659 -6.75631214 86.85644189 -17 86 C-17.16958977 87.1607605 -17.16958977 87.1607605 -17.34260559 88.3449707 C-18.5875664 96.67109071 -20.07759163 104.92722874 -21.69921875 113.1875 C-21.96168554 114.53391169 -22.2240266 115.88034789 -22.48625183 117.22680664 C-24.28232242 126.42860162 -26.12018406 135.62192858 -27.9678688 144.81347656 C-28.8226928 149.06898631 -29.67400734 153.32520062 -30.52528572 157.5814209 C-31.24546918 161.17959809 -31.96931772 164.77697602 -32.69995117 168.37304688 C-33.42855593 171.96034592 -34.14752903 175.5494633 -34.8603878 179.1399231 C-35.25316621 181.10560041 -35.65564805 183.06933126 -36.05854797 185.03295898 C-39.96953928 201.9628628 -39.96953928 201.9628628 -36 218 C-32.51267997 222.1622852 -29.84115699 223.806194 -24.4375 224.375 C-17.57558089 224.22051026 -11.00890292 221.1167674 -5 218 C-5.43720607 224.01158352 -6.44901097 229.85834878 -7.6875 235.75 C-7.82381836 236.48275146 -7.96013672 237.21550293 -8.10058594 237.97045898 C-9.34268157 243.57973727 -11.24333283 245.77544285 -16 249 C-27.24886077 255.39754796 -40.05349008 256.68765889 -52.64453125 254.3125 C-62.37975416 251.59253085 -69.81286716 247.04058633 -75.0546875 238.2265625 C-83.48559833 222.65707023 -80.05607336 204.90321682 -76.75 188.375 C-76.39815924 186.55852653 -76.04770107 184.74178483 -75.69848633 182.92480469 C-74.92072759 178.89254217 -74.13362295 174.86224278 -73.34033203 170.83300781 C-71.97655171 163.89789592 -70.6387548 156.95786851 -69.30386734 150.01715469 C-67.09137858 138.51472291 -64.87041655 127.01395776 -62.63671875 115.515625 C-62.41507553 114.37326385 -62.19343231 113.23090271 -61.96507263 112.05392456 C-60.33984464 103.69627424 -58.66983821 95.34919105 -57 87 C-67.56 87 -78.12 87 -89 87 C-86.38863434 76.55453734 -78.81908281 64.48129373 -71 57 C-64.43820983 54.11791336 -57.75732587 55.36482497 -51 57 C-50.85900879 56.21874756 -50.71801758 55.43749512 -50.57275391 54.63256836 C-49.92713813 51.0668763 -49.27611855 47.50219114 -48.625 43.9375 C-48.40328125 42.70837891 -48.1815625 41.47925781 -47.953125 40.21289062 C-44.99711141 24.08522823 -44.99711141 24.08522823 -42.3203125 21.171875 C-9.63186813 0 -9.63186813 0 0 0 Z " fill="#4880FE" transform="translate(841,140)"/>
<path d="M0 0 C4.10808169 4.40867303 5.29071338 7.11751394 5.22265625 13.18310547 C4.76938464 18.9175877 3.31866823 24.47597986 2 30.0625 C1.71382812 31.30966797 1.42765625 32.55683594 1.1328125 33.84179688 C0.43054709 36.89665143 -0.28057701 39.94914906 -1 43 C-3.0830534 40.24389901 -5.04767234 37.45488875 -6.9375 34.5625 C-7.46730469 33.77359375 -7.99710938 32.9846875 -8.54296875 32.171875 C-9.62418081 30.56020233 -10.69098511 28.9388443 -11.75 27.3125 C-19.1089282 19.74915712 -29.06985721 16.18625244 -39.48828125 15.90625 C-55.74170723 16.61678228 -69.3645702 23.87742661 -81 35 C-100.16571631 55.97502196 -110.38105239 83.16642375 -109.3125 111.59765625 C-108.50037848 125.01216342 -104.2986611 139.48212464 -94.78125 149.48046875 C-83.79236198 158.85476138 -72.31268552 162.31261584 -58.04931641 161.24560547 C-43.40952834 159.49106332 -27.24464483 150.48054126 -17 140 C-15.235274 145.2643193 -17.20953457 150.05330867 -18.5625 155.25 C-18.80291016 156.26191406 -19.04332031 157.27382813 -19.29101562 158.31640625 C-22.04663626 169.01959775 -27.58720013 176.19331049 -37 182 C-56.03866209 191.55818546 -79.96697816 192.8651289 -100.15283203 186.29980469 C-109.2556833 182.98550803 -116.87040863 178.63926631 -124 172 C-124.63164063 171.44699219 -125.26328125 170.89398438 -125.9140625 170.32421875 C-141.69666949 155.75833256 -148.14377297 132.80883512 -149.03125 111.953125 C-148.73741941 74.78355498 -135.80394222 41.12314405 -109.38427734 14.96459961 C-82.06891434 -11.20494766 -32.795439 -24.11611677 0 0 Z " fill="#497DFE" transform="translate(1008,206)"/>
<path d="M0 0 C32.83945672 2.81721332 61.17807023 14.69351078 83.8125 38.9375 C93.9303181 51.03435343 98.23838798 63.33700837 97 79 C95.05353828 92.78305329 88.13526151 104.73493583 79 115 C77.78183594 116.41539062 77.78183594 116.41539062 76.5390625 117.859375 C51.08481437 146.96147955 14.37226216 165.16027659 -19.80712891 181.91308594 C-22.31233283 183.15481026 -24.80270487 184.42389518 -27.29296875 185.6953125 C-52.51680935 198.53429214 -78.31153669 209.62490702 -104.72509766 219.73925781 C-106.69496253 220.49759852 -108.65999909 221.2689296 -110.61474609 222.06542969 C-115.68303479 224.10565507 -115.68303479 224.10565507 -119 223 C-118.46971191 222.72027344 -117.93942383 222.44054687 -117.39306641 222.15234375 C-94.10147534 209.80427672 -71.89239077 196.02931377 -50.42675781 180.72900391 C-48.30904937 179.22018991 -46.1843427 177.72233948 -44.0546875 176.23046875 C-30.97208434 167.03252922 -18.2425999 157.28936459 -6 147 C-5.4524707 146.54270508 -4.90494141 146.08541016 -4.34082031 145.61425781 C7.20111714 135.95671831 17.7560077 125.93952218 27 114 C27.46647949 113.39929688 27.93295898 112.79859375 28.41357422 112.1796875 C29.91460244 110.23411074 31.3973797 108.27589988 32.875 106.3125 C33.33962646 105.70704346 33.80425293 105.10158691 34.28295898 104.4777832 C38.06049353 99.3758651 41.78642307 93.28850227 41.125 86.6875 C39.54009161 77.09550237 32.67386196 69.84555174 25.22265625 64.13671875 C15.86375727 57.93148512 5.99569402 53.38934868 -5 51 C-4.82609741 50.09459473 -4.82609741 50.09459473 -4.64868164 49.17089844 C-1.48281509 32.57106244 0.18005088 16.88477098 0 0 Z " fill="#009881" transform="translate(1187,238)"/>
<path d="M0 0 C-2.80570705 15.12481922 -5.83855386 30.19618742 -9 45.25 C-9.18412445 46.12717682 -9.3682489 47.00435364 -9.55795288 47.90811157 C-11.70345914 58.12369003 -13.85973 68.33699439 -16.01744843 78.54999924 C-17.16751043 83.99455966 -18.31504994 89.43964939 -19.46137238 94.88499832 C-20.16583223 98.2305895 -20.87155471 101.57590249 -21.58056641 104.92053223 C-24.46734685 118.54701909 -27.28071485 132.18047523 -29.828125 145.875 C-30.03419373 146.98012939 -30.24026245 148.08525879 -30.45257568 149.22387695 C-34.07120073 165.50939083 -34.07120073 165.50939083 -30.34375 181.1484375 C-28.44766993 183.76105946 -26.22335144 185.70167115 -23.68359375 187.67578125 C-22 189 -22 189 -19 192 C-40.12 192 -61.24 192 -83 192 C-77.26805177 159.90108994 -77.26805177 159.90108994 -74.8359375 147.95703125 C-74.55866385 146.58233003 -74.28172399 145.20756146 -74.00508118 143.83273315 C-73.42694303 140.96154017 -72.84725892 138.09066653 -72.26620483 135.22006226 C-70.72419905 127.59909247 -69.19627084 119.97529003 -67.66796875 112.3515625 C-67.51392641 111.58345686 -67.35988407 110.81535122 -67.20117378 110.02396965 C-64.22063911 95.15721119 -61.28866937 80.2813682 -58.40582275 65.39535522 C-57.93084912 62.94362518 -57.45459295 60.49214322 -56.97698975 58.04092407 C-56.31812546 54.65690621 -55.66411699 51.27198835 -55.01171875 47.88671875 C-54.72522209 46.41958939 -54.72522209 46.41958939 -54.43293762 44.92282104 C-51.66394316 31.70972183 -51.66394316 31.70972183 -55 19 C-58.64373048 14.21109708 -62.440761 12.79026341 -68 11 C-64.31710482 8.82263869 -60.40948469 8.13047882 -56.26171875 7.34375 C-55.50389603 7.19595093 -54.7460733 7.04815186 -53.96528625 6.89587402 C-52.35785955 6.58382553 -50.74986498 6.27469005 -49.14135742 5.96826172 C-46.73266111 5.50861795 -44.32624213 5.03831143 -41.91992188 4.56640625 C-27.95267092 1.85368161 -14.29429187 -0.43389082 0 0 Z " fill="#0258F2" transform="translate(276,198)"/>
<path d="M0 0 C11.72039279 8.39516752 18.84359463 19.28457216 21.5625 33.375 C23.30726046 46.75149688 19.94628069 60.00461321 11.9375 70.875 C4.08618037 80.19527621 -4.26313001 87.16658848 -16.75 88.56640625 C-30.2145538 89.20727031 -40.78513917 85.18001069 -50.8125 76.125 C-60.63371141 65.24916187 -64.16278393 53.22602468 -64.02734375 38.82421875 C-63.20013459 24.58118108 -57.24916577 12.74733994 -46.8125 3.125 C-32.88332855 -7.41059942 -15.01891125 -9.61606859 0 0 Z " fill="#00C271" transform="translate(1275.8125,5.875)"/>
<path d="M0 0 C6.83216772 5.90050849 10.20179126 13.07564886 11.125 22 C10.74441767 32.93117013 5.95946829 42.37761168 -1.25 50.375 C-8.55643529 57.18042258 -17.00912009 60.77548738 -27.07421875 60.5859375 C-34.39715462 59.87599399 -40.45952248 56.9737963 -45.25 51.375 C-50.7208612 43.85429714 -51.190522 36.44581213 -50.25 27.375 C-48.50960756 17.27501765 -43.35104181 8.3125561 -35.40234375 1.84375 C-23.90659946 -6.00089583 -12.33606117 -6.16803059 0 0 Z " fill="#0060F5" transform="translate(284.25,115.625)"/>
<path d="M0 0 C0.66 0.33 1.32 0.66 2 1 C1.18595703 1.68835938 1.18595703 1.68835938 0.35546875 2.390625 C-0.35996094 3.00421875 -1.07539062 3.6178125 -1.8125 4.25 C-2.52019531 4.85328125 -3.22789063 5.4565625 -3.95703125 6.078125 C-6.05997556 7.93917218 -6.05997556 7.93917218 -7.63671875 10.234375 C-8.08660156 10.81703125 -8.53648438 11.3996875 -9 12 C-9.66 12 -10.32 12 -11 12 C-11 12.66 -11 13.32 -11 14 C-8.525 14.99 -8.525 14.99 -6 16 C-6.70554068 19.66881155 -8.27735506 22.70450534 -10 26 C-10.66 26 -11.32 26 -12 26 C-12 27.65 -12 29.3 -12 31 C-11.34 31.33 -10.68 31.66 -10 32 C-10.99 32.33 -11.98 32.66 -13 33 C-14.00016187 35.00032373 -14.49396008 36.83125748 -15 39 C-15.66 39 -16.32 39 -17 39 C-17.33 40.98 -17.66 42.96 -18 45 C-16.92621094 44.45730469 -15.85242187 43.91460937 -14.74609375 43.35546875 C-13.30995051 42.63270385 -11.8737495 41.91005372 -10.4375 41.1875 C-9.73302734 40.83107422 -9.02855469 40.47464844 -8.30273438 40.10742188 C3.85607798 34 3.85607798 34 8 34 C8 33.34 8 32.68 8 32 C15.3753444 30.05911989 22.36047868 28.86826879 30.02734375 28.90234375 C31.95610352 28.90717773 31.95610352 28.90717773 33.92382812 28.91210938 C35.26171945 28.92046198 36.59961007 28.92892689 37.9375 28.9375 C39.30273274 28.94252341 40.66796726 28.94708483 42.03320312 28.95117188 C45.35551457 28.96291149 48.67773408 28.97933321 52 29 C52 29.33 52 29.66 52 30 C51.30140869 30.0093457 50.60281738 30.01869141 49.88305664 30.02832031 C6.52695832 30.75466047 -23.69600716 49.01610201 -56 77 C-57 75 -57 75 -56.28515625 72.26953125 C-49.32098534 52.57850488 -38.51921227 35.98852014 -24 21 C-23.27441895 20.23574707 -23.27441895 20.23574707 -22.53417969 19.45605469 C-15.55532871 12.10868352 -8.30127533 5.82855502 0 0 Z " fill="#01DC61" transform="translate(1078,95)"/>
<path d="M0 0 C57.09 0 114.18 0 173 0 C173 0.66 173 1.32 173 2 C90.83 2.495 90.83 2.495 7 3 C7 3.66 7 4.32 7 5 C7.66 5.33 8.32 5.66 9 6 C8.67 6.33 8.34 6.66 8 7 C8.66 7.33 9.32 7.66 10 8 C10 9.98 10 11.96 10 14 C10.66 14 11.32 14 12 14 C11.67 15.65 11.34 17.3 11 19 C8.43557846 15.15336769 6.54874735 11.06608468 4.53515625 6.91015625 C2.94020948 3.70163268 2.94020948 3.70163268 0 0 Z " fill="#468BF8" transform="translate(441,112)"/>
<path d="M0 0 C2.475 0.495 2.475 0.495 5 1 C3.95902388 4.86648272 2.96301592 8.49461443 1 12 C1.66 12.33 2.32 12.66 3 13 C2.34 14.32 1.68 15.64 1 17 C0.34 17 -0.32 17 -1 17 C-2.07525194 19.65228812 -3.09456151 22.28368454 -4 25 C-4.99 25 -5.98 25 -7 25 C-6.67 26.65 -6.34 28.3 -6 30 C-11.445 34.455 -11.445 34.455 -17 39 C-18 37 -18 37 -17.28515625 34.26953125 C-12.95891796 22.03719614 -7.09967316 10.87137453 0 0 Z " fill="#03E158" transform="translate(1039,133)"/>
<path d="M0 0 C0.68707555 2.49064888 1 4.37886292 1 7 C0.34 6.67 -0.32 6.34 -1 6 C-1.16435547 6.84884766 -1.16435547 6.84884766 -1.33203125 7.71484375 C-1.56986328 8.81505859 -1.56986328 8.81505859 -1.8125 9.9375 C-1.96332031 10.66839844 -2.11414063 11.39929688 -2.26953125 12.15234375 C-2.51058594 12.76207031 -2.75164063 13.37179688 -3 14 C-3.99 14.33 -4.98 14.66 -6 15 C-7.53794755 17.23002395 -8.06897963 18.41367314 -7.75 21.125 C-7.06291767 23.1996952 -7.06291767 23.1996952 -5 25 C-5.66 25.33 -6.32 25.66 -7 26 C-6.2884375 26.6496875 -6.2884375 26.6496875 -5.5625 27.3125 C-4 29 -4 29 -3 32 C-4.25 33.5 -4.25 33.5 -6 35 C-7.32 35 -8.64 35 -10 35 C-10.66 34.34 -11.32 33.68 -12 33 C-13.485 33.495 -13.485 33.495 -15 34 C-14.34 34.99 -13.68 35.98 -13 37 C-13.66 37 -14.32 37 -15 37 C-14.72382467 38.94074861 -14.72382467 38.94074861 -14 41 C-13.01 41.66 -12.02 42.32 -11 43 C-12.32 44.32 -13.64 45.64 -15 47 C-15.99 46.67 -16.98 46.34 -18 46 C-18.99 46.495 -18.99 46.495 -20 47 C-19.01281102 30.87591339 -10.56144034 12.14687595 0 0 Z M-3 26 C-3 29 -3 29 -3 29 Z " fill="#499CF1" transform="translate(598,237)"/>
<path d="M0 0 C9.24998339 -0.03081837 18.49997354 -0.05105359 27.75 -0.0625 C28.4368475 -0.06335602 29.12369499 -0.06421204 29.83135605 -0.06509399 C54.89881099 -0.09267333 79.94283878 0.25101418 105 1 C105 1.33 105 1.66 105 2 C71.67 2 38.34 2 4 2 C3.67 2.99 3.34 3.98 3 5 C2.01 5.495 2.01 5.495 1 6 C0.37147066 8.33247815 -0.15535246 10.69291467 -0.625 13.0625 C-0.88539062 14.35285156 -1.14578125 15.64320312 -1.4140625 16.97265625 C-1.60742188 17.97167969 -1.80078125 18.97070312 -2 20 C-2.33 20 -2.66 20 -3 20 C-2.88305763 18.35357453 -2.75590767 16.70787398 -2.625 15.0625 C-2.55539063 14.14597656 -2.48578125 13.22945312 -2.4140625 12.28515625 C-2.06929563 9.54978888 -1.58269369 6.97773551 -0.97412109 4.29467773 C-0.79223236 3.48900864 -0.61034363 2.68333954 -0.42294312 1.85325623 C-0.28337189 1.24168167 -0.14380066 0.63010712 0 0 Z " fill="#0076F9" transform="translate(55,112)"/>
<path d="M0 0 C0.66 0 1.32 0 2 0 C3.84730372 4.80298967 4.43015194 9.11072468 4.6875 14.1875 C4.73455078 14.89841797 4.78160156 15.60933594 4.83007812 16.34179688 C5.01479407 19.5606993 5.02923284 21.91230148 4 25 C3.67 25 3.34 25 3 25 C2.67 26.98 2.34 28.96 2 31 C2.66 31.33 3.32 31.66 4 32 C3.01 32.495 3.01 32.495 2 33 C1.34227572 36.02934491 1.34227572 36.02934491 1 39 C0.34 39 -0.32 39 -1 39 C-1.12375 40.2375 -1.2475 41.475 -1.375 42.75 C-1.75746305 45.8762197 -2.30549523 48.28879237 -4 51 C-4.14424218 45.94255952 -3.6417346 41.43395642 -2.6171875 36.484375 C-2.33384693 35.05354133 -2.05132058 33.62254623 -1.76953125 32.19140625 C-1.32600269 29.97376343 -0.87665158 27.7578777 -0.41259766 25.54443359 C1.43602041 16.66195257 2.64368993 8.92095551 0 0 Z " fill="#016DEF" transform="translate(222,217)"/>
<path d="M0 0 C2.06091892 -0.00218884 4.12130456 -0.0203571 6.18212891 -0.03930664 C7.47505859 -0.04124023 8.76798828 -0.04317383 10.10009766 -0.04516602 C11.29183594 -0.0492749 12.48357422 -0.05338379 13.71142578 -0.05761719 C16.56884766 0.18530273 16.56884766 0.18530273 18.56884766 2.18530273 C16.56884766 4.18530273 16.56884766 4.18530273 13.49609375 4.41235352 C12.20783691 4.40187988 10.91958008 4.39140625 9.59228516 4.38061523 C8.90703766 4.37778534 8.22179016 4.37495544 7.51577759 4.37203979 C5.32495739 4.36083555 3.1345445 4.33573132 0.94384766 4.31030273 C-0.54052144 4.30027321 -2.02489695 4.29114731 -3.50927734 4.28295898 C-7.15003495 4.26089567 -10.79055391 4.22636449 -14.43115234 4.18530273 C-14.76115234 5.83530273 -15.09115234 7.48530273 -15.43115234 9.18530273 C-16.32790011 6.67440898 -16.56287908 5.53995164 -15.61865234 2.99780273 C-12.49049216 -1.77675755 -5.05872405 -0.0006041 0 0 Z " fill="#0451DC" transform="translate(375.43115234375,222.814697265625)"/>
<path d="M0 0 C1.32 1.32 2.64 2.64 4 4 C3.54625 4.556875 3.0925 5.11375 2.625 5.6875 C0.96155067 8.05471635 0.01954325 10.30549283 -1 13 C-2.52125331 14.52125331 -4.03108579 14.30192659 -6.1484375 14.5 C-7.40914063 14.62375 -7.40914063 14.62375 -8.6953125 14.75 C-9.57960938 14.8325 -10.46390625 14.915 -11.375 15 C-13.11227929 15.16350864 -14.84927636 15.33005151 -16.5859375 15.5 C-17.74681885 15.60828125 -17.74681885 15.60828125 -18.93115234 15.71875 C-21.19212015 15.96095559 -21.19212015 15.96095559 -24 17 C-23.67 17.99 -23.34 18.98 -23 20 C-24.65 20.66 -26.3 21.32 -28 22 C-27.18957164 20.51969728 -26.37659652 19.04078858 -25.5625 17.5625 C-24.88380859 16.32693359 -24.88380859 16.32693359 -24.19140625 15.06640625 C-23 13 -23 13 -22 12 C-20.5112814 11.91330568 -19.018555 11.89296506 -17.52734375 11.90234375 C-16.62822266 11.90556641 -15.72910156 11.90878906 -14.80273438 11.91210938 C-13.85720703 11.92048828 -12.91167969 11.92886719 -11.9375 11.9375 C-10.98810547 11.94201172 -10.03871094 11.94652344 -9.06054688 11.95117188 C-6.70696935 11.9629989 -4.35351523 11.97947975 -2 12 C-1.93288818 11.25218262 -1.86577637 10.50436523 -1.79663086 9.73388672 C-1.125 2.25 -1.125 2.25 0 0 Z " fill="#016EF2" transform="translate(327,185)"/>
<path d="M0 0 C19.47 0 38.94 0 59 0 C59 0.33 59 0.66 59 1 C41.51 1.33 24.02 1.66 6 2 C6 2.66 6 3.32 6 4 C6.66 4.33 7.32 4.66 8 5 C7.67 5.33 7.34 5.66 7 6 C7.66 6.33 8.32 6.66 9 7 C9 8.98 9 10.96 9 13 C9.66 13 10.32 13 11 13 C10.67 14.65 10.34 16.3 10 18 C7.41290916 14.11936374 5.48818051 9.99588823 3.4375 5.8125 C2.01852216 2.90293016 2.01852216 2.90293016 0 0 Z " fill="#49ACFE" transform="translate(442,113)"/>
<path d="M0 0 C1.92875977 0.00483398 1.92875977 0.00483398 3.89648438 0.00976562 C5.2343757 0.01811823 6.57226632 0.02658314 7.91015625 0.03515625 C9.27538899 0.04017966 10.64062351 0.04474108 12.00585938 0.04882812 C15.32817082 0.06056774 18.65039033 0.07698946 21.97265625 0.09765625 C21.97265625 0.42765625 21.97265625 0.75765625 21.97265625 1.09765625 C21.27406494 1.10700195 20.57547363 1.11634766 19.85571289 1.12597656 C-3.29002231 1.51373463 -22.81135861 4.3228109 -42.92578125 16.41015625 C-43.94929688 16.96703125 -44.9728125 17.52390625 -46.02734375 18.09765625 C-46.68734375 17.76765625 -47.34734375 17.43765625 -48.02734375 17.09765625 C-45.50902686 15.65559484 -42.9878659 14.21894417 -40.46484375 12.78515625 C-39.40813477 12.17897461 -39.40813477 12.17897461 -38.33007812 11.56054688 C-26.92806784 5.09765625 -26.92806784 5.09765625 -22.02734375 5.09765625 C-22.02734375 4.43765625 -22.02734375 3.77765625 -22.02734375 3.09765625 C-14.65199935 1.15677614 -7.66686507 -0.03407496 0 0 Z " fill="#00ED82" transform="translate(1108.02734375,123.90234375)"/>
<path d="M0 0 C1.23517939 3.67829156 0.87706304 6.86116706 0.5 10.6875 C0.29436811 12.7882167 0.11757211 14.89252 0 17 C0.33 17.33 0.66 17.66 1 18 C1.04080783 19.99958364 1.04254356 22.00045254 1 24 C1.721875 24.103125 2.44375 24.20625 3.1875 24.3125 C6.24491993 25.05986932 8.38329635 26.28045189 11 28 C10.67 28.66 10.34 29.32 10 30 C8.34385343 30.38218767 6.67542976 30.71395102 5 31 C4.34 31.33 3.68 31.66 3 32 C2.67 32.99 2.34 33.98 2 35 C-2.36175382 23.2777866 -3.86466729 12.07708529 0 0 Z " fill="#00D673" transform="translate(1214,33)"/>
<path d="M0 0 C0.66 0.33 1.32 0.66 2 1 C1.18595703 1.68835938 1.18595703 1.68835938 0.35546875 2.390625 C-0.35996094 3.00421875 -1.07539062 3.6178125 -1.8125 4.25 C-2.52019531 4.85328125 -3.22789063 5.4565625 -3.95703125 6.078125 C-6.05997556 7.93917218 -6.05997556 7.93917218 -7.63671875 10.234375 C-8.08660156 10.81703125 -8.53648438 11.3996875 -9 12 C-9.66 12 -10.32 12 -11 12 C-11 12.66 -11 13.32 -11 14 C-12.35628917 14.86941614 -13.71417152 15.73640781 -15.078125 16.59375 C-19.14246177 19.56765495 -22.50862294 23.38891858 -26 27 C-26.99779494 28.00220021 -27.99682037 29.00318977 -29 30 C-29.99 29.67 -30.98 29.34 -32 29 C-10.5989937 6.97982512 -10.5989937 6.97982512 0 0 Z " fill="#02E666" transform="translate(1078,95)"/>
<path d="M0 0 C0.66 0 1.32 0 2 0 C2 0.66 2 1.32 2 2 C3.65 2 5.3 2 7 2 C6.67 2.99 6.34 3.98 6 5 C-19.08 4.67 -44.16 4.34 -70 4 C-70 3.67 -70 3.34 -70 3 C-63.69106487 2.85453121 -57.38206716 2.71229098 -51.07299805 2.57275391 C-48.93691146 2.52508983 -46.80084273 2.47661724 -44.66479492 2.42724609 C-41.5539191 2.35549607 -38.44299727 2.28647071 -35.33203125 2.21875 C-34.3070755 2.19578857 -33.28211975 2.17282715 -32.22610474 2.14916992 C-27.09314879 2.04429279 -21.96745141 1.99154768 -16.83349609 2.0390625 C-15.37685799 2.05120789 -15.37685799 2.05120789 -13.89079285 2.06359863 C-12.05384841 2.08326308 -10.21697083 2.11173527 -8.38032532 2.15026855 C-6.25309264 2.17398455 -4.12517795 2.09643642 -2 2 C-1.34 1.34 -0.68 0.68 0 0 Z " fill="#4974EF" transform="translate(551,264)"/>
<path d="M0 0 C1.32 0.33 2.64 0.66 4 1 C3.01 1.33 2.02 1.66 1 2 C-0.38319587 3.68015159 -0.38319587 3.68015159 -1 6 C-0.814375 7.010625 -0.62875 8.02125 -0.4375 9.0625 C-0.293125 10.031875 -0.14875 11.00125 0 12 C-0.47566406 12.40863281 -0.95132813 12.81726563 -1.44140625 13.23828125 C-4.50111021 16.69674362 -3.568578 21.77812825 -3.42578125 26.18359375 C-2.84436582 31.39499626 -1.12575408 34.87048264 2 39 C2.55042969 39.73863281 3.10085937 40.47726563 3.66796875 41.23828125 C4.10753906 41.81964844 4.54710937 42.40101563 5 43 C0.50636693 41.50212231 -1.69181647 37.91763124 -4 34 C-7.63326613 26.55746177 -6.91602749 17.24907529 -4.6875 9.4375 C-3.50534525 6.02050985 -2.08440558 2.97772225 0 0 Z " fill="#0075F2" transform="translate(240,128)"/>
<path d="M0 0 C1.13759766 -0.00773437 2.27519531 -0.01546875 3.44726562 -0.0234375 C23.33444111 0.02194111 23.33444111 0.02194111 27.5625 4.25 C26.38816406 4.105625 25.21382812 3.96125 24.00390625 3.8125 C7.22189955 1.83876603 -10.19968097 0.39674447 -26.625 5.4375 C-29.4375 6.25 -29.4375 6.25 -32.4375 5.25 C-21.77679852 0.82480316 -11.47707353 -0.07776673 0 0 Z " fill="#00EA85" transform="translate(1136.4375,76.75)"/>
<path d="M0 0 C-0.33 0.99 -0.66 1.98 -1 3 C-14.2 3 -27.4 3 -41 3 C-41 2.34 -41 1.68 -41 1 C-35.64316109 0.85708001 -30.28630878 0.71467681 -24.92944336 0.57275391 C-23.10684843 0.52439372 -21.28425725 0.47589195 -19.46166992 0.42724609 C-16.84294592 0.35737543 -14.22420889 0.28801279 -11.60546875 0.21875 C-10.78974899 0.19687622 -9.97402924 0.17500244 -9.1335907 0.15246582 C-6.08808243 0.07229699 -3.04671601 0 0 0 Z " fill="#4977FE" transform="translate(445,388)"/>
<path d="M0 0 C-0.66 3.3 -1.32 6.6 -2 10 C-2.81984375 9.83242187 -3.6396875 9.66484375 -4.484375 9.4921875 C-5.56203125 9.28851563 -6.6396875 9.08484375 -7.75 8.875 C-8.81734375 8.66617188 -9.8846875 8.45734375 -10.984375 8.2421875 C-14.13688351 7.98900676 -15.39959066 8.29584825 -18 10 C-18 9.01 -18 8.02 -18 7 C-15.37690901 5.82887054 -12.75171858 4.66294036 -10.125 3.5 C-9.37863281 3.16613281 -8.63226562 2.83226562 -7.86328125 2.48828125 C-7.14785156 2.17246094 -6.43242188 1.85664063 -5.6953125 1.53125 C-5.03547363 1.23798828 -4.37563477 0.94472656 -3.69580078 0.64257812 C-2 0 -2 0 0 0 Z " fill="#3F96E7" transform="translate(841,140)"/>
<path d="M0 0 C1.64666203 0.1135629 3.29236082 0.24117381 4.9375 0.375 C5.85402344 0.44460937 6.77054688 0.51421875 7.71484375 0.5859375 C8.84599609 0.79089844 8.84599609 0.79089844 10 1 C10.33 1.66 10.66 2.32 11 3 C7.7 2.67 4.4 2.34 1 2 C2.26974972 6.41522109 2.26974972 6.41522109 5 10 C4.34 10 3.68 10 3 10 C3 10.99 3 11.98 3 13 C3.66 13.33 4.32 13.66 5 14 C4.34 14 3.68 14 3 14 C3.33 14.99 3.66 15.98 4 17 C3.690625 17.721875 3.38125 18.44375 3.0625 19.1875 C1.89971482 22.26546078 1.96359279 24.73833738 2.0625 27.99609375 C1.97239268 30.88515972 1.06524424 33.33688939 0 36 C-0.33 36 -0.66 36 -1 36 C-0.96970703 35.15816162 -0.93941406 34.31632324 -0.90820312 33.44897461 C-0.79539403 30.29747904 -0.68370578 27.14594622 -0.57275391 23.99438477 C-0.52469403 22.63564508 -0.47619966 21.27692068 -0.42724609 19.91821289 C-0.35657736 17.9546316 -0.28764979 15.9909879 -0.21875 14.02734375 C-0.17685547 12.84906006 -0.13496094 11.67077637 -0.09179688 10.45678711 C0.00081185 6.96942838 0.01558196 3.48841149 0 0 Z " fill="#00BA89" transform="translate(1187,238)"/>
<path d="M0 0 C0.33 0.99 0.66 1.98 1 3 C1.99 3.33 2.98 3.66 4 4 C3.34 4 2.68 4 2 4 C-0.21744797 12.13965658 -0.43487658 20.18221609 -0.625 28.5625 C-0.6632657 29.96681881 -0.70232212 31.37111631 -0.7421875 32.77539062 C-0.83588029 36.18346604 -0.92160074 39.59154423 -1 43 C-1.33 43 -1.66 43 -2 43 C-5.52150698 29.25476309 -2.99687816 13.61082163 0 0 Z " fill="#489FF4" transform="translate(577,285)"/>
<path d="M0 0 C2.31 0 4.62 0 7 0 C7.66 1.32 8.32 2.64 9 4 C7.44148245 4.82011312 5.87798284 5.63076213 4.3125 6.4375 C3.00732422 7.11619141 3.00732422 7.11619141 1.67578125 7.80859375 C-3.53044825 10.12669593 -8.38706998 10.27604574 -14 10 C-14.66 9.34 -15.32 8.68 -16 8 C-11.71 8 -7.42 8 -3 8 C-3 7.34 -3 6.68 -3 6 C-2.34 6 -1.68 6 -1 6 C-0.67 5.34 -0.34 4.68 0 4 C0.66 4.33 1.32 4.66 2 5 C1.34 3.35 0.68 1.7 0 0 Z " fill="#0356E6" transform="translate(269,166)"/>
<path d="M0 0 C0.33 0.66 0.66 1.32 1 2 C10.9 2 20.8 2 31 2 C31.495 3.485 31.495 3.485 32 5 C31.34 5.99 30.68 6.98 30 8 C30 6.68 30 5.36 30 4 C19.44 4 8.88 4 -2 4 C-1.34 2.68 -0.68 1.36 0 0 Z " fill="#016BE7" transform="translate(289,223)"/>
<path d="M0 0 C0.66 0.66 1.32 1.32 2 2 C1.13834229 1.98952637 0.27668457 1.97905273 -0.61108398 1.96826172 C-3.84837839 1.933908 -7.08557897 1.90896987 -10.32299805 1.89013672 C-11.71658409 1.8801607 -13.11014966 1.86657499 -14.50366211 1.84912109 C-22.2828521 1.75421888 -29.44606762 1.98244077 -37 4 C-37.99 4 -38.98 4 -40 4 C-40 3.34 -40 2.68 -40 2 C-26.6184076 -0.95414918 -13.6644503 -2.31600853 0 0 Z " fill="#499DFD" transform="translate(982,195)"/>
<path d="M0 0 C-0.99 4.95 -1.98 9.9 -3 15 C-3.33 15 -3.66 15 -4 15 C-3.67 11.04 -3.34 7.08 -3 3 C-4.18078125 3.56589844 -5.3615625 4.13179687 -6.578125 4.71484375 C-8.13532537 5.45592103 -9.6926221 6.19679588 -11.25 6.9375 C-12.02730469 7.31068359 -12.80460937 7.68386719 -13.60546875 8.06835938 C-14.35957031 8.42607422 -15.11367187 8.78378906 -15.890625 9.15234375 C-16.92751465 9.6472229 -16.92751465 9.6472229 -17.98535156 10.15209961 C-19.97427999 10.98917528 -21.89580682 11.53583974 -24 12 C-21.31046218 8.79022312 -17.82122436 7.22413651 -14.125 5.4375 C-13.51269531 5.13392578 -12.90039062 4.83035156 -12.26953125 4.51757812 C-3.07689951 0 -3.07689951 0 0 0 Z " fill="#499DFC" transform="translate(1089,142)"/>
<path d="M0 0 C0.33 0.99 0.66 1.98 1 3 C-0.24525403 5.49050806 -1.43951529 7.48622235 -3.5 9.375 C-5.3224889 11.34936297 -6.1157158 13.47748278 -7.10546875 15.94921875 C-8.77766075 19.7828467 -10.92070134 23.37560984 -13 27 C-14.24974464 23.25076609 -13.24434737 21.86905542 -11.546875 18.45117188 C-11.18078125 17.74541016 -10.8146875 17.03964844 -10.4375 16.3125 C-10.07269531 15.59513672 -9.70789063 14.87777344 -9.33203125 14.13867188 C-6.6663243 9.00765204 -3.71008484 4.45210181 0 0 Z " fill="#499FFB" transform="translate(884,238)"/>
<path d="M0 0 C0.33 0 0.66 0 1 0 C0.12878049 9.3795122 0.12878049 9.3795122 -0.6875 13.3125 C-1.05391054 16.46363067 -0.40303613 18.19392774 1 21 C-0.32 21.99 -1.64 22.98 -3 24 C-3.33 23.67 -3.66 23.34 -4 23 C-3.94067975 15.09557682 -2.10141616 7.57302805 0 0 Z " fill="#0078F2" transform="translate(31,234)"/>
<path d="M0 0 C-1.65 1.65 -3.3 3.3 -5 5 C-4.01 5.99 -3.02 6.98 -2 8 C-2.33 8.66 -2.66 9.32 -3 10 C-3.66 9.401875 -4.32 8.80375 -5 8.1875 C-8.58183997 5.57574169 -11.81377726 4.41905856 -16 3 C-10.92216681 0.07048085 -5.75857366 -0.1371089 0 0 Z " fill="#0175F1" transform="translate(224,206)"/>
<path d="M0 0 C0.33 0 0.66 0 1 0 C1.22601251 5.19828784 0.529008 9.62395011 -0.7578125 14.66796875 C-1.04464663 17.42990382 -0.44336227 18.67458301 1 21 C-0.65 21.66 -2.3 22.32 -4 23 C-3.54593375 15.04601192 -2.12888539 7.67202093 0 0 Z " fill="#0078F1" transform="translate(26,259)"/>
<path d="M0 0 C-3.92294379 1.30764793 -7.40234892 0.97601763 -11.50390625 0.83984375 C-14.17566478 0.73541217 -14.17566478 0.73541217 -16 3 C-16 2.34 -16 1.68 -16 1 C-16.556875 1.495 -17.11375 1.99 -17.6875 2.5 C-20.38162983 4.24754367 -21.85375007 4.26218749 -25 4 C-18.67941542 -3.14066042 -8.34713889 -3.25742005 0 0 Z " fill="#0175F3" transform="translate(277,113)"/>
<path d="M0 0 C0.33 0 0.66 0 1 0 C1 3.63 1 7.26 1 11 C0.34 11 -0.32 11 -1 11 C-0.79375 11.9075 -0.5875 12.815 -0.375 13.75 C0.0127245 17.11027897 -0.19588033 18.24075815 -2 21 C-3 20 -3 20 -3.25 16.6875 C-3.20807393 10.93314641 -1.5415151 5.50541108 0 0 Z " fill="#0170EF" transform="translate(318,232)"/>
<path d="M0 0 C0.66 0.33 1.32 0.66 2 1 C3.49594437 5.4878331 2.88141068 9.44604482 2 14 C0.4375 16 0.4375 16 -1 17 C-1.66 16.34 -2.32 15.68 -3 15 C-2.65304233 12.38311586 -2.21130748 9.93773107 -1.625 7.375 C-1.39683594 6.31539063 -1.39683594 6.31539063 -1.1640625 5.234375 C-0.78632276 3.48732869 -0.39447905 1.74334288 0 0 Z " fill="#006BED" transform="translate(303,305)"/>
<path d="M0 0 C0.66 0.33 1.32 0.66 2 1 C3.19811544 5.57462259 2.83154187 9.38032292 2 14 C1.01 14.33 0.02 14.66 -1 15 C-1.33 15.66 -1.66 16.32 -2 17 C-1.85786703 15.10388566 -1.71113093 13.20811606 -1.5625 11.3125 C-1.48128906 10.25675781 -1.40007812 9.20101563 -1.31640625 8.11328125 C-1.03548319 5.34913703 -0.59843148 2.71054259 0 0 Z " fill="#0167EE" transform="translate(209,306)"/>
<path d="M0 0 C1.58158962 3.00887781 2.43945339 5.63672037 3 9 C2.34 9 1.68 9 1 9 C1 9.66 1 10.32 1 11 C1.66 11 2.32 11 3 11 C2.34 12.32 1.68 13.64 1 15 C0.34 15 -0.32 15 -1 15 C-1.33 15.66 -1.66 16.32 -2 17 C-2.25706972 11.08739655 -1.2982126 5.76081841 0 0 Z " fill="#006BF0" transform="translate(216,271)"/>
<path d="M0 0 C0.99 0.99 1.98 1.98 3 3 C2.34 4.65 1.68 6.3 1 8 C1.66 8.66 2.32 9.32 3 10 C2.01 10.495 2.01 10.495 1 11 C0.27840576 12.64363134 -0.39351421 14.31050386 -1 16 C-1.66 16 -2.32 16 -3 16 C-2.69177379 13.7077546 -2.37829126 11.41621545 -2.0625 9.125 C-1.88847656 7.84882813 -1.71445312 6.57265625 -1.53515625 5.2578125 C-1 2 -1 2 0 0 Z " fill="#0074ED" transform="translate(48,148)"/>
<path d="M0 0 C-0.33 0.66 -0.66 1.32 -1 2 C-3.19286894 2.42328837 -5.40701202 2.73851089 -7.625 3 C-13.48373511 3.73343622 -13.48373511 3.73343622 -19.1875 5.1875 C-22 6 -22 6 -25 5 C-17.01187476 1.68417443 -8.72016939 -0.47136051 0 0 Z " fill="#00DD7A" transform="translate(1129,77)"/>
<path d="M0 0 C0.33 0 0.66 0 1 0 C2.125 7.625 2.125 7.625 1 11 C0.34 11 -0.32 11 -1 11 C-1.33 11.66 -1.66 12.32 -2 13 C-2.99 11.02 -3.98 9.04 -5 7 C-4.0409375 6.1028125 -4.0409375 6.1028125 -3.0625 5.1875 C-0.79689611 3.09189663 -0.79689611 3.09189663 0 0 Z " fill="#4972FA" transform="translate(450,346)"/>
<path d="M0 0 C-0.66 2.97 -1.32 5.94 -2 9 C-2.5775 8.54625 -3.155 8.0925 -3.75 7.625 C-5.78471242 6.15548547 -7.74902529 5.08765585 -10 4 C-8.71086513 3.32845067 -7.41859796 2.66291141 -6.125 2 C-5.40570312 1.62875 -4.68640625 1.2575 -3.9453125 0.875 C-2 0 -2 0 0 0 Z " fill="#22B1C4" transform="translate(841,140)"/>
<path d="M0 0 C0.90457722 2.47510086 1.16843185 3.59237953 0.14453125 6.0703125 C-0.29503906 6.74835938 -0.73460937 7.42640625 -1.1875 8.125 C-1.61417969 8.80820313 -2.04085937 9.49140625 -2.48046875 10.1953125 C-4.15678371 12.18620585 -5.61635587 13.00979238 -8 14 C-6.6744419 10.37723685 -5.05653045 7.36494652 -2.875 4.1875 C-2.33617187 3.39730469 -1.79734375 2.60710937 -1.2421875 1.79296875 C-0.83226562 1.20128906 -0.42234375 0.60960937 0 0 Z " fill="#49A2FE" transform="translate(763,208)"/>
<path d="M0 0 C1 2 1 2 0.25 5.5625 C-0.1625 6.696875 -0.575 7.83125 -1 9 C-1.99 9.33 -2.98 9.66 -4 10 C-4.95117358 12.03277473 -4.95117358 12.03277473 -5.5625 14.4375 C-6.80269058 18.80269058 -6.80269058 18.80269058 -9 21 C-8.47104903 15.60973772 -6.53666304 11.75770511 -3.9375 7.125 C-3.56044922 6.43664062 -3.18339844 5.74828125 -2.79492188 5.0390625 C-1.87106965 3.3550787 -0.93660333 1.67692533 0 0 Z " fill="#49B0FA" transform="translate(592,246)"/>
<path d="M0 0 C2.06298828 -0.34057617 2.06298828 -0.34057617 4.5703125 -0.29296875 C5.46621094 -0.28330078 6.36210938 -0.27363281 7.28515625 -0.26367188 C8.69087891 -0.2259668 8.69087891 -0.2259668 10.125 -0.1875 C11.06988281 -0.17396484 12.01476562 -0.16042969 12.98828125 -0.14648438 C15.32608779 -0.11106306 17.66276237 -0.06167271 20 0 C20 0.33 20 0.66 20 1 C14.06 1 8.12 1 2 1 C1.34 2.65 0.68 4.3 0 6 C-2.125 7.3125 -2.125 7.3125 -4 8 C-2.87548273 5.0280615 -1.77706209 2.66559313 0 0 Z " fill="#49B4FE" transform="translate(770,197)"/>
<path d="M0 0 C2 2 2 2 2.25 5.875 C2.18064077 9.05396475 1.80254921 11.29617618 0 14 C-0.66 14 -1.32 14 -2 14 C-1.85923685 12.0412957 -1.7122324 10.08303907 -1.5625 8.125 C-1.48128906 7.03445312 -1.40007812 5.94390625 -1.31640625 4.8203125 C-1 2 -1 2 0 0 Z " fill="#0353DB" transform="translate(293,132)"/>
<path d="M0 0 C1.89600369 0.31146472 3.79179587 0.62421717 5.6875 0.9375 C6.74324219 1.11152344 7.79898438 1.28554688 8.88671875 1.46484375 C11.60249604 1.93167121 14.30124235 2.44422616 17 3 C17 3.33 17 3.66 17 4 C10.98389601 5.07430428 6.80555482 5.03703678 1 3 C0.67 2.01 0.34 1.02 0 0 Z " fill="#4978FE" transform="translate(624,390)"/>
<path d="M0 0 C0.66 0 1.32 0 2 0 C2 0.66 2 1.32 2 2 C2.66 2.33 3.32 2.66 4 3 C3.67 3.33 3.34 3.66 3 4 C3.66 4.33 4.32 4.66 5 5 C5 6.98 5 8.96 5 11 C5.66 11 6.32 11 7 11 C6.67 12.65 6.34 14.3 6 16 C4.08614468 13.12921701 3.03567048 10.66588344 1.875 7.4375 C1.52179688 6.46683594 1.16859375 5.49617188 0.8046875 4.49609375 C0 2 0 2 0 0 Z " fill="#499FFA" transform="translate(446,115)"/>
<path d="M0 0 C2.64 0 5.28 0 8 0 C5.32509121 1.78327252 3.10195317 2.81096301 0.125 3.9375 C-2.80493685 5.07359796 -5.29879896 6.18052437 -8 7.8125 C-8.66 8.204375 -9.32 8.59625 -10 9 C-10.66 8.67 -11.32 8.34 -12 8 C-10.73168307 7.18357746 -9.46024069 6.37200895 -8.1875 5.5625 C-7.12595703 4.88380859 -7.12595703 4.88380859 -6.04296875 4.19140625 C-4 3 -4 3 -1 2 C-0.67 1.34 -0.34 0.68 0 0 Z " fill="#4993FD" transform="translate(1098,223)"/>
<path d="M0 0 C0.99 0.33 1.98 0.66 3 1 C-0.5922868 4.5922868 -5.76254267 4.05048585 -10.62109375 4.09765625 C-12.2265919 4.0911032 -13.83207656 4.07931749 -15.4375 4.0625 C-16.26443359 4.05798828 -17.09136719 4.05347656 -17.94335938 4.04882812 C-19.96227146 4.03715811 -21.98114574 4.01922718 -24 4 C-24 3.67 -24 3.34 -24 3 C-22.9627478 2.91697632 -22.9627478 2.91697632 -21.90454102 2.83227539 C-18.79012786 2.58036469 -15.67632905 2.32152649 -12.5625 2.0625 C-11.47388672 1.97548828 -10.38527344 1.88847656 -9.26367188 1.79882812 C-7.71196289 1.66831055 -7.71196289 1.66831055 -6.12890625 1.53515625 C-5.17056885 1.456604 -4.21223145 1.37805176 -3.22485352 1.29711914 C-1.03090111 1.23332929 -1.03090111 1.23332929 0 0 Z " fill="#00A796" transform="translate(1296,190)"/>
<path d="M0 0 C-2.11997834 1.19733988 -4.24513676 2.38298713 -6.375 3.5625 C-6.97828125 3.90474609 -7.5815625 4.24699219 -8.203125 4.59960938 C-9.76978241 5.46127095 -11.38290862 6.23718183 -13 7 C-13.66 6.67 -14.32 6.34 -15 6 C-11.61680651 0.92520977 -6.00612711 -2.00204237 0 0 Z " fill="#49A4F8" transform="translate(663,223)"/>
<path d="M0 0 C0.33 0 0.66 0 1 0 C0.22095672 13.6332574 0.22095672 13.6332574 -2 20 C-2.33 20 -2.66 20 -3 20 C-2.88543872 17.60325733 -2.75871281 15.20818782 -2.625 12.8125 C-2.5940625 12.13896484 -2.563125 11.46542969 -2.53125 10.77148438 C-2.29896078 6.80321025 -1.71612524 3.59270121 0 0 Z " fill="#499CFD" transform="translate(1084,158)"/>
<path d="M0 0 C0.66 0.33 1.32 0.66 2 1 C0.75479583 2.44165628 -0.49637923 3.87815652 -1.75 5.3125 C-2.44609375 6.11300781 -3.1421875 6.91351563 -3.859375 7.73828125 C-5.79145335 9.77965601 -7.69943126 11.39892851 -10 13 C-10.66 12.67 -11.32 12.34 -12 12 C-8.04 8.04 -4.08 4.08 0 0 Z " fill="#49B1FA" transform="translate(616,217)"/>
<path d="M0 0 C0.66 0.33 1.32 0.66 2 1 C1.16855469 1.70576172 1.16855469 1.70576172 0.3203125 2.42578125 C-0.76636719 3.35970703 -0.76636719 3.35970703 -1.875 4.3125 C-2.59429688 4.92738281 -3.31359375 5.54226562 -4.0546875 6.17578125 C-6.19179331 8.0412324 -6.19179331 8.0412324 -8 11 C-8.99 11 -9.98 11 -11 11 C-9.52202738 7.32943063 -7.52384523 5.58914217 -4.375 3.25 C-3.55773438 2.63640625 -2.74046875 2.0228125 -1.8984375 1.390625 C-0.95871094 0.70226562 -0.95871094 0.70226562 0 0 Z " fill="#01E573" transform="translate(1078,95)"/>
<path d="M0 0 C0.33 0.66 0.66 1.32 1 2 C-3.62 2 -8.24 2 -13 2 C-12.67 1.34 -12.34 0.68 -12 0 C-7.76569602 -0.89571815 -4.16092983 -1.34618318 0 0 Z " fill="#4963FE" transform="translate(940,394)"/>
<path d="M0 0 C1.93816735 0.1141866 3.87555099 0.24173423 5.8125 0.375 C6.89144531 0.44460938 7.97039062 0.51421875 9.08203125 0.5859375 C12 1 12 1 15 3 C10.05 3 5.1 3 0 3 C0 2.01 0 1.02 0 0 Z " fill="#0256F0" transform="translate(150,268)"/>
<path d="M0 0 C0.66 0 1.32 0 2 0 C2.22226864 1.76913824 2.42733873 3.54044371 2.625 5.3125 C2.74101562 6.29863281 2.85703125 7.28476563 2.9765625 8.30078125 C3 11 3 11 1 14 C0 13 0 13 -0.09765625 10.05859375 C-0.08605469 8.86363281 -0.07445312 7.66867188 -0.0625 6.4375 C-0.05347656 5.23996094 -0.04445313 4.04242188 -0.03515625 2.80859375 C-0.02355469 1.88175781 -0.01195312 0.95492187 0 0 Z " fill="#49A2F8" transform="translate(452,132)"/>
<path d="M0 0 C0 0.33 0 0.66 0 1 C-2.43489767 1.55706146 -4.87149591 2.0960037 -7.3125 2.625 C-8.34793945 2.86476563 -8.34793945 2.86476563 -9.40429688 3.109375 C-11.25173481 3.50206712 -13.12680022 3.75842888 -15 4 C-15.99 3.34 -16.98 2.68 -18 2 C-12.12116651 -0.61281488 -6.29268272 -0.18328202 0 0 Z " fill="#00D876" transform="translate(1104,125)"/>
<path d="M0 0 C0.66 0.33 1.32 0.66 2 1 C-1.63 4.63 -5.26 8.26 -9 12 C-9 8.82629722 -8.69066658 7.6205332 -7 5 C-5.0625 3.9375 -5.0625 3.9375 -3 3 C-1.29078411 1.4587688 -1.29078411 1.4587688 0 0 Z " fill="#49A9FA" transform="translate(645,231)"/>
<path d="M0 0 C2.97 0 5.94 0 9 0 C8 2 8 2 5.71484375 2.8515625 C4.79832031 3.10679687 3.88179687 3.36203125 2.9375 3.625 C1.55884766 4.01558594 1.55884766 4.01558594 0.15234375 4.4140625 C-0.55792969 4.60742188 -1.26820312 4.80078125 -2 5 C-1.34 3.35 -0.68 1.7 0 0 Z " fill="#008279" transform="translate(1091,448)"/>
<path d="M0 0 C0.99 0.33 1.98 0.66 3 1 C0.03 3.64 -2.94 6.28 -6 9 C-6.66 8.67 -7.32 8.34 -8 8 C-7.236875 7.4225 -6.47375 6.845 -5.6875 6.25 C-3.33799083 4.28296907 -1.70676495 2.51523256 0 0 Z " fill="#00A582" transform="translate(1341,116)"/>
<path d="M0 0 C9.59453303 1.74259681 9.59453303 1.74259681 13 5 C8.81154456 4.40164922 4.94251293 3.5586679 1 2 C0.67 1.34 0.34 0.68 0 0 Z " fill="#00D87D" transform="translate(1169,82)"/>
<path d="M0 0 C1.46726798 3.81489674 0.43336419 6.29011622 -1 10 C-1.66 9.67 -2.32 9.34 -3 9 C-2.4140625 2.84765625 -2.4140625 2.84765625 -2 1 C-1.34 0.67 -0.68 0.34 0 0 Z " fill="#4959FC" transform="translate(1121,356)"/>
<path d="M0 0 C2 3 2 3 1.75 6.4375 C1 10 1 10 -1 14 C-0.67 9.38 -0.34 4.76 0 0 Z " fill="#00C497" transform="translate(1187,260)"/>
<path d="M0 0 C0.66 0 1.32 0 2 0 C2.36923077 6.4 2.36923077 6.4 0.5 9.4375 C0.005 9.953125 -0.49 10.46875 -1 11 C-1.14285714 3.57142857 -1.14285714 3.57142857 0 0 Z " fill="#4999FC" transform="translate(1043,173)"/>
<path d="M0 0 C0.99 0 1.98 0 3 0 C3 0.99 3 1.98 3 3 C2.34 3 1.68 3 1 3 C1.33 4.32 1.66 5.64 2 7 C1.01 7.66 0.02 8.32 -1 9 C-1.125 2.25 -1.125 2.25 0 0 Z " fill="#0076F2" transform="translate(8,349)"/>
<path d="M0 0 C0.33 0 0.66 0 1 0 C1.36630156 3.93774177 1.30233203 5.56539771 -1 8.875 C-1.66 9.57625 -2.32 10.2775 -3 11 C-2.53199289 6.94393835 -2.12046792 3.53411321 0 0 Z " fill="#499FFB" transform="translate(869,266)"/>
<path d="M0 0 C1.0625 1.8125 1.0625 1.8125 2 4 C1.67 4.99 1.34 5.98 1 7 C-0.32 6.67 -1.64 6.34 -3 6 C-1.125 1.125 -1.125 1.125 0 0 Z " fill="#4999F0" transform="translate(601,254)"/>
<path d="M0 0 C1.60495567 0.11442461 3.20898119 0.24194694 4.8125 0.375 C5.70582031 0.44460937 6.59914063 0.51421875 7.51953125 0.5859375 C10 1 10 1 13 3 C11.35 3.33 9.7 3.66 8 4 C8 3.34 8 2.68 8 2 C7.05125 2.04125 6.1025 2.0825 5.125 2.125 C2 2 2 2 0 0 Z " fill="#00C491" transform="translate(1199,240)"/>
<path d="M0 0 C2 2 2 2 2 5 C1.34 5 0.68 5 0 5 C-0.33 7.64 -0.66 10.28 -1 13 C-1.33 13 -1.66 13 -2 13 C-1.85915204 11.20793453 -1.71216299 9.41635083 -1.5625 7.625 C-1.48128906 6.62726563 -1.40007813 5.62953125 -1.31640625 4.6015625 C-1 2 -1 2 0 0 Z " fill="#017FF3" transform="translate(35,215)"/>
<path d="M0 0 C0.99 0.33 1.98 0.66 3 1 C1.08864614 4.53600465 -0.62642766 6.78972846 -4 9 C-3.67 7.68 -3.34 6.36 -3 5 C-2.34 5 -1.68 5 -1 5 C-0.67 3.35 -0.34 1.7 0 0 Z " fill="#0652F0" transform="translate(366,380)"/>
<path d="M0 0 C0.66 0.33 1.32 0.66 2 1 C1.67 3.31 1.34 5.62 1 8 C0.34 8 -0.32 8 -1 8 C-1.33 8.99 -1.66 9.98 -2 11 C-1.85892253 9.54119891 -1.71197585 8.08296449 -1.5625 6.625 C-1.48128906 5.81289063 -1.40007812 5.00078125 -1.31640625 4.1640625 C-1 2 -1 2 0 0 Z " fill="#495BFD" transform="translate(1157,355)"/>
<path d="M0 0 C0.91222891 3.07877257 1.32903218 5.79193623 1 9 C-0.515625 10.65234375 -0.515625 10.65234375 -2 12 C-1.85904936 10.3745692 -1.71207913 8.74965949 -1.5625 7.125 C-1.48128906 6.22007812 -1.40007812 5.31515625 -1.31640625 4.3828125 C-1 2 -1 2 0 0 Z " fill="#49A5F7" transform="translate(448,163)"/>
<path d="M0 0 C0.66 0 1.32 0 2 0 C2 2.64 2 5.28 2 8 C1.34 8 0.68 8 0 8 C-0.33 8.66 -0.66 9.32 -1 10 C-0.67 6.7 -0.34 3.4 0 0 Z " fill="#49A4F9" transform="translate(450,151)"/>
<path d="M0 0 C0.66 0 1.32 0 2 0 C1.25 4.75 1.25 4.75 -1 7 C-1.99 6.67 -2.98 6.34 -4 6 C-2.7260411 3.96166576 -1.38938077 1.96147874 0 0 Z " fill="#0459F2" transform="translate(209,148)"/>
<path d="M0 0 C0.33 0.66 0.66 1.32 1 2 C-0.36125 1.938125 -0.36125 1.938125 -1.75 1.875 C-4.8782046 1.99531556 -6.38614006 2.3914708 -9 4 C-9 3.01 -9 2.02 -9 1 C-6.04335481 -0.4783226 -3.25770263 -0.06032783 0 0 Z " fill="#4994F5" transform="translate(832,146)"/>
<path d="M0 0 C1.15941038 3.47823115 0.70820884 5.45895578 0 9 C-0.99 9 -1.98 9 -3 9 C-2.01 6.03 -1.02 3.06 0 0 Z " fill="#0353E5" transform="translate(290,148)"/>
<path d="M0 0 C7.42857143 -0.28571429 7.42857143 -0.28571429 11 2 C8.69 2.33 6.38 2.66 4 3 C4 2.34 4 1.68 4 1 C2.68 0.67 1.36 0.34 0 0 Z " fill="#00C87A" transform="translate(1126,123)"/>
<path d="M0 0 C0.33 0 0.66 0 1 0 C1 5.94 1 11.88 1 18 C0.67 18 0.34 18 0 18 C0 12.06 0 6.12 0 0 Z " fill="#00764E" transform="translate(1179,178)"/>
<path d="M0 0 C0.66 0 1.32 0 2 0 C1.25 4.75 1.25 4.75 -1 7 C-1.66 6.34 -2.32 5.68 -3 5 C-1.625 2.5 -1.625 2.5 0 0 Z " fill="#0355E6" transform="translate(220,129)"/>
<path d="M0 0 C2.59482129 2.59482129 2.69990302 4.39883625 3 8 C2.34 8.66 1.68 9.32 1 10 C0.67 8.35 0.34 6.7 0 5 C-0.99 5.495 -0.99 5.495 -2 6 C-1.34 4.02 -0.68 2.04 0 0 Z " fill="#00C593" transform="translate(1363,86)"/>
<path d="M0 0 C1.98 0 3.96 0 6 0 C6 0.99 6 1.98 6 3 C4.02 3 2.04 3 0 3 C0 2.01 0 1.02 0 0 Z " fill="#0456F0" transform="translate(196,156)"/>
<path d="M0 0 C0 0.99 0 1.98 0 3 C-2.5 5.1875 -2.5 5.1875 -5 7 C-5.66 6.67 -6.32 6.34 -7 6 C-4.69 4.02 -2.38 2.04 0 0 Z " fill="#016DE7" transform="translate(250,117)"/>
<path d="M0 0 C1.90318884 2.85478326 2.4619099 4.41941308 3.125 7.6875 C3.29257813 8.49574219 3.46015625 9.30398437 3.6328125 10.13671875 C3.75398438 10.75160156 3.87515625 11.36648437 4 12 C3.01 12.495 3.01 12.495 2 13 C1.66127487 11.58461283 1.32925376 10.16762037 1 8.75 C0.814375 7.96109375 0.62875 7.1721875 0.4375 6.359375 C0 4 0 4 0 0 Z " fill="#007D59" transform="translate(1183,216)"/>
<path d="M0 0 C0.33 0 0.66 0 1 0 C1.33 4.62 1.66 9.24 2 14 C1.67 14 1.34 14 1 14 C-0.20568053 9.32798795 -0.09382426 4.78503708 0 0 Z " fill="#007955" transform="translate(1180,196)"/>
<path d="M0 0 C0.33 0 0.66 0 1 0 C1 1.98 1 3.96 1 6 C0.67 6 0.34 6 0 6 C0 4.02 0 2.04 0 0 Z " fill="#007754" transform="translate(1182,210)"/>
<path d="" fill="#006B50" transform="translate(0,0)"/>
<path d="" fill="#006A62" transform="translate(0,0)"/>
<path d="" fill="#008260" transform="translate(0,0)"/>
<path d="" fill="#008260" transform="translate(0,0)"/>
<path d="" fill="#008260" transform="translate(0,0)"/>
<path d="" fill="#008260" transform="translate(0,0)"/>
<path d="" fill="#008260" transform="translate(0,0)"/>
<path d="" fill="#008260" transform="translate(0,0)"/>
<path d="" fill="#008260" transform="translate(0,0)"/>
<path d="" fill="#008260" transform="translate(0,0)"/>
<path d="" fill="#00784E" transform="translate(0,0)"/>
<path d="" fill="#008260" transform="translate(0,0)"/>
<path d="" fill="#008260" transform="translate(0,0)"/>
<path d="" fill="#008260" transform="translate(0,0)"/>
<path d="" fill="#008260" transform="translate(0,0)"/>
<path d="" fill="#00784E" transform="translate(0,0)"/>
<path d="" fill="#008260" transform="translate(0,0)"/>
<path d="" fill="#00784E" transform="translate(0,0)"/>
<path d="" fill="#00784E" transform="translate(0,0)"/>
<path d="" fill="#00784E" transform="translate(0,0)"/>
<path d="" fill="#00784E" transform="translate(0,0)"/>
<path d="" fill="#008260" transform="translate(0,0)"/>
<path d="" fill="#00784E" transform="translate(0,0)"/>
<path d="" fill="#00784E" transform="translate(0,0)"/>
<path d="" fill="#006B50" transform="translate(0,0)"/>
<path d="" fill="#006B50" transform="translate(0,0)"/>
<path d="" fill="#00784E" transform="translate(0,0)"/>
</svg>
